<svg width="277" height="179" viewBox="0 0 277 179" fill="none" xmlns="http://www.w3.org/2000/svg">
<path d="M121.193 1.38974C119.703 0.640964 118.035 0.318724 116.373 0.458659C114.711 0.598595 113.12 1.19526 111.776 2.18265L3.8155 81.7992C2.68262 82.6368 1.76163 83.7278 1.12623 84.9849C0.490817 86.242 0.158628 87.6303 0.156263 89.0387C0.153898 90.4472 0.481408 91.8366 1.11259 93.0958C1.74377 94.355 2.66111 95.4491 3.79117 96.2905L111.757 176.408C113.098 177.405 114.689 178.009 116.354 178.154C118.019 178.298 119.691 177.977 121.184 177.227C122.677 176.477 123.932 175.326 124.808 173.904C125.685 172.482 126.149 170.845 126.148 169.175V136.622H267.622C268.806 136.622 269.979 136.39 271.073 135.937C272.168 135.484 273.162 134.82 274 133.983C274.837 133.146 275.502 132.152 275.955 131.058C276.408 129.964 276.64 128.792 276.64 127.608V51.0072C276.64 49.8233 276.408 48.6509 275.955 47.557C275.502 46.4631 274.837 45.4692 274 44.632C273.162 43.7949 272.168 43.131 271.073 42.6782C269.979 42.2254 268.806 41.9927 267.622 41.9934H126.148V9.43069C126.144 7.76413 125.679 6.13107 124.805 4.71202C123.931 3.29297 122.681 2.14319 121.193 1.38974Z" fill="#F7BE00"/>
</svg>
