<svg width="268" height="180" viewBox="0 0 268 180" fill="none" xmlns="http://www.w3.org/2000/svg">
<path d="M145.743 178.503C147.319 179.295 149.083 179.635 150.841 179.487C152.598 179.338 154.28 178.707 155.701 177.662L263.666 98.0404C264.863 97.1536 265.835 95.9989 266.505 94.6689C267.175 93.3388 267.524 91.8704 267.524 90.3813C267.524 88.8923 267.175 87.4239 266.505 86.0938C265.835 84.7638 264.863 83.6091 263.666 82.7223L155.72 2.59006C154.302 1.53923 152.619 0.902597 150.86 0.751044C149.101 0.59949 147.334 0.938948 145.756 1.73165C144.179 2.52436 142.852 3.7392 141.924 5.24087C140.997 6.74254 140.504 8.47209 140.502 10.237V42.2743H10.2558C9.00346 42.2724 7.76305 42.5176 6.60573 42.9958C5.4484 43.4741 4.39693 44.1761 3.51161 45.0614C2.62629 45.9467 1.92455 46.9981 1.44662 48.1551C0.968704 49.3121 0.724019 50.552 0.726582 51.8038V128.443C0.725297 129.694 0.970997 130.932 1.44961 132.088C1.92822 133.243 2.63033 134.292 3.51565 135.176C4.40097 136.059 5.45209 136.76 6.60873 137.236C7.76536 137.713 9.00474 137.957 10.2558 137.953H140.502V169.991C140.503 171.755 140.994 173.485 141.919 174.987C142.844 176.49 144.168 177.707 145.743 178.503Z" fill="black"/>
</svg>
