<svg width="127" height="100" viewBox="0 0 127 100" fill="none" xmlns="http://www.w3.org/2000/svg">
<path d="M115.75 72.1559C120.732 62.6381 102.161 43.087 74.2599 28.4828C46.359 13.8786 19.7161 9.8175 14.7564 19.2927L9.93045 28.5126C4.94854 38.0304 23.5122 57.5958 51.3989 72.1926C79.2855 86.7893 105.92 90.9362 110.902 81.4184L115.75 72.1559Z" fill="url(#paint0_linear_505_1384)"/>
<path d="M51.0633 72.7982C22.4248 57.8079 4.09013 38.254 9.32447 28.2539L14.1727 18.9915C19.37 9.06235 45.9379 12.9215 74.5622 27.9044C103.186 42.8872 121.512 62.5269 116.315 72.4561L111.489 81.676C106.233 91.7186 79.7017 87.7885 51.0633 72.7982ZM73.9311 29.11C46.4132 14.7063 20.1031 10.4581 15.3217 19.5929L10.4957 28.8128C5.68454 38.0043 24.1691 57.203 51.6869 71.6067C79.2048 86.0105 105.514 90.2945 110.318 81.1171L115.166 71.8547C119.948 62.7199 101.463 43.5212 73.9311 29.11Z" fill="#AB6004"/>
<path d="M56.1952 62.9975C84.0837 77.5953 110.731 81.7131 115.713 72.195C120.695 62.6768 102.126 43.127 74.237 28.5293C46.3484 13.9315 19.7014 9.81364 14.7193 19.3318C9.73723 28.8499 28.3066 48.3998 56.1952 62.9975Z" fill="url(#paint1_linear_505_1384)"/>
<path d="M55.8901 63.5768C27.2516 48.5865 8.91691 29.0326 14.1513 19.0325C19.3856 9.03244 45.9164 12.9625 74.5407 27.9454C103.165 42.9282 121.513 62.5254 116.316 72.4545C111.119 82.3837 84.5285 78.5671 55.8901 63.5768ZM73.9319 29.1085C46.414 14.7048 20.1039 10.4565 15.3225 19.5913C10.541 28.7261 28.9736 48.0241 56.4915 62.4278C84.0093 76.8316 110.334 81.0872 115.167 71.8531C120 62.619 101.464 43.5197 73.9319 29.1085Z" fill="#FFED8B"/>
<path d="M116.328 70.3621C118.412 60.3394 100.467 42.1819 74.24 28.4538C48.0129 14.7257 22.8954 10.2705 15.8173 17.7514L116.328 70.3621Z" fill="url(#paint2_linear_505_1384)"/>
<path d="M73.0365 30.8246C49.5044 18.5072 26.9522 15.1236 22.6905 23.2655C21.0794 26.3436 22.3246 30.6276 25.7372 35.4317C23.3454 31.5775 22.5927 28.1476 23.9143 25.6228C27.931 17.949 49.4174 21.2626 71.8856 33.0232C94.3538 44.7838 109.336 60.5588 105.319 68.2326C103.997 70.7574 100.75 72.0936 96.2057 72.3171C102.112 72.391 106.328 70.9654 107.939 67.8874C112.201 59.7455 96.5827 43.1495 73.0365 30.8246Z" fill="#CA7A11"/>
<path d="M22.9125 23.563C22.7419 23.9241 22.6054 24.3004 22.5049 24.6869C22.2262 25.7827 22.2147 26.9294 22.4715 28.0306C23.6149 31.8894 25.7005 35.403 28.5405 38.2549C32.3878 42.4301 36.6678 46.1848 41.3085 49.4557C46.5823 53.2798 52.14 56.6963 57.9332 59.6756C63.6874 62.7406 69.6668 65.3629 75.8193 67.5198C81.1553 69.4629 86.682 70.8354 92.3071 71.6143C96.2692 72.318 100.344 72.0296 104.167 70.7747C105.24 70.3788 106.201 69.7282 106.967 68.8788C107.163 68.656 107.338 68.4146 107.489 68.1581L107.63 67.8886L107.481 68.1723C107.342 68.4337 107.177 68.6801 106.988 68.9079C106.262 69.7925 105.342 70.4982 104.3 70.9705C100.476 72.4168 96.3447 72.8554 92.3026 72.2444C86.5991 71.6189 80.986 70.3421 75.5731 68.439C69.3609 66.3125 63.3189 63.7178 57.4992 60.6772C51.6787 57.6265 46.0986 54.1379 40.807 50.2413C36.1392 46.896 31.8715 43.0251 28.0881 38.7048C25.2783 35.7345 23.2838 32.0885 22.2979 28.1204C22.0843 26.9953 22.1402 25.8356 22.461 24.7362C22.5404 24.451 22.6487 24.1747 22.7843 23.9115L22.9125 23.563Z" fill="#FFC747"/>
<path d="M58.5764 63.6637C57.9551 63.1283 57.2827 62.6553 56.5689 62.2515C56.4101 62.145 56.2307 62.0732 56.0424 62.0407C55.854 62.0082 55.6609 62.0157 55.4757 62.0628C55.2904 62.1099 55.1171 62.1955 54.9672 62.314C54.8172 62.4325 54.6939 62.5813 54.6052 62.7506C54.5166 62.92 54.4646 63.1061 54.4527 63.2968C54.4408 63.4876 54.4692 63.6788 54.5361 63.8578C54.6029 64.0369 54.7068 64.1999 54.8409 64.3361C54.9749 64.4724 55.1362 64.5789 55.3141 64.6486C56.1436 65.0324 57.0086 65.3339 57.8969 65.5488C58.9451 65.7902 59.2526 64.2706 58.5764 63.6637Z" fill="white"/>
<path d="M75.7985 27.9673C75.7348 27.7665 75.6321 27.5802 75.4962 27.4192C75.3603 27.2581 75.194 27.1255 75.0067 27.0289C74.833 26.9135 74.637 26.836 74.4313 26.8013C74.2257 26.7665 74.0151 26.7754 73.8131 26.8272C73.6111 26.8791 73.4223 26.9728 73.2588 27.1023C73.0953 27.2318 72.9609 27.3942 72.8642 27.5789C72.7675 27.7637 72.7107 27.9667 72.6974 28.1748C72.6842 28.3829 72.7148 28.5915 72.7873 28.787C72.8598 28.9826 72.9725 29.1607 73.1183 29.3098C73.264 29.459 73.4394 29.5759 73.6332 29.653C73.8341 29.7632 74.0537 29.8352 74.2809 29.8655C74.2809 29.8655 75.4492 29.8084 74.8556 29.7688C75.0691 29.779 75.281 29.728 75.4664 29.6217C75.6519 29.5155 75.803 29.3584 75.9021 29.1691C76.0012 28.9797 76.0441 28.766 76.0258 28.5531C76.0074 28.3402 75.9286 28.1369 75.7985 27.9673Z" fill="white"/>
<defs>
<linearGradient id="paint0_linear_505_1384" x1="11.924" y1="23.7374" x2="113.315" y2="76.8084" gradientUnits="userSpaceOnUse">
<stop stop-color="#CD7D0A"/>
<stop offset="0.26" stop-color="#AF5203"/>
<stop offset="0.5" stop-color="#974B00"/>
<stop offset="0.74" stop-color="#BC6D07"/>
<stop offset="1" stop-color="#D0800A"/>
</linearGradient>
<linearGradient id="paint1_linear_505_1384" x1="70.5401" y1="28.6181" x2="62.5044" y2="54.4998" gradientUnits="userSpaceOnUse">
<stop stop-color="#FFDD40"/>
<stop offset="1" stop-color="#E29A0A"/>
</linearGradient>
<linearGradient id="paint2_linear_505_1384" x1="74.7778" y1="4.12295" x2="62.5457" y2="60.4619" gradientUnits="userSpaceOnUse">
<stop offset="0.2" stop-color="#FFFF9F"/>
<stop offset="1" stop-color="#FFFA6D"/>
</linearGradient>
</defs>
</svg>
