<svg width="134" height="158" viewBox="0 0 134 158" fill="none" xmlns="http://www.w3.org/2000/svg">
<g id="Group 1">
<path id="Vector" d="M48.4946 14.5568C21.8224 22.1453 8.42085 57.1725 18.5888 92.7977C28.7568 128.423 58.5504 151.151 85.2226 143.581L98.5306 139.843C125.203 132.255 138.604 97.2275 128.436 61.6023C118.268 25.977 88.4748 3.24863 61.8026 10.8372L48.4946 14.5568Z" fill="url(#paint0_linear_505_1371)"/>
<path id="Vector_2" d="M74.6812 145.808C50.3828 145.808 26.5143 123.603 17.8229 93.0052C7.5802 57.0435 21.2434 21.5117 48.2894 13.8297L61.5975 10.0915C65.0813 9.10286 68.6861 8.60586 72.3075 8.61487C96.6059 8.61487 120.474 30.8012 129.166 61.3985C134.119 78.7813 133.689 96.5752 127.97 111.509C122.25 126.444 111.914 136.78 98.6993 140.518L85.3912 144.256C81.9107 145.269 78.306 145.791 74.6812 145.808ZM72.3075 10.0915C68.8253 10.0849 65.3591 10.563 62.0087 11.512L48.7006 15.2502C22.5331 22.7266 9.28109 57.3799 19.2808 92.5379C27.804 122.444 51.0557 144.219 74.6812 144.219C78.1643 144.219 81.6305 143.735 84.98 142.78L98.2881 139.041C110.942 135.434 120.979 125.434 126.549 110.893C132.119 96.3509 132.549 78.8186 127.689 61.735C119.185 31.8105 95.877 10.0915 72.3075 10.0915Z" fill="#A14A04"/>
<path id="Vector_3" d="M85.1704 143.546C111.839 135.96 125.243 100.93 115.109 65.3051C104.974 29.6803 75.1389 6.95104 48.47 14.5378C21.8011 22.1246 8.39731 57.1545 18.5318 92.7792C28.6664 128.404 58.5015 151.133 85.1704 143.546Z" fill="url(#paint1_linear_505_1371)"/>
<path id="Vector_4" d="M74.6813 145.807C50.3828 145.807 26.5143 123.602 17.8229 93.0043C7.5802 57.0426 21.2434 21.5108 48.2894 13.8288C51.7724 12.8341 55.3772 12.3308 58.9994 12.3335C83.2979 12.3335 107.166 34.5385 115.858 65.1172C120.811 82.5186 120.381 100.313 114.662 115.247C108.942 130.181 98.5311 140.573 85.3912 144.311C81.908 145.305 78.3034 145.808 74.6813 145.807ZM58.9994 13.8662C55.5162 13.8638 52.0497 14.3482 48.7006 15.3054C22.5331 22.7818 9.28109 57.4351 19.2808 92.5931C27.804 122.499 51.0557 144.274 74.6813 144.274C78.1643 144.274 81.6305 143.79 84.98 142.835C97.6339 139.227 107.671 129.246 113.241 114.798C118.811 100.35 119.241 82.7055 114.381 65.6405C105.877 35.6039 82.5689 13.8662 58.9994 13.8662Z" fill="#FFED8B"/>
<g id="Group">
<path id="Vector_5" d="M43.8575 16.2183C20.3067 26.3488 9.01729 59.2078 18.5497 92.8518C28.0822 126.496 55.0161 148.439 80.3612 144.663L43.8575 16.2183Z" fill="url(#paint2_linear_505_1371)"/>
</g>
<path id="Vector_6" d="M25.0005 90.9685C33.561 121.042 58.9809 140.163 81.7841 133.659C90.399 131.067 97.7329 125.347 102.344 117.622C98.0791 123.637 91.9185 128.047 84.8494 130.145C63.3546 136.257 39.3179 117.94 31.1499 89.2115C22.9819 60.4833 33.7853 32.2971 55.2801 26.1664C62.398 24.2287 69.9604 24.7355 76.7562 27.6056C68.762 23.4622 59.5043 22.4684 50.8129 24.8207C28.0098 31.2691 16.4587 60.8945 25.0005 90.9685Z" fill="#CA7A11"/>
<path id="Vector_7" d="M82.2318 133.228L83.8579 132.611L85.727 131.882C86.512 131.602 87.2971 131.06 88.2503 130.593L89.7082 129.808C90.2129 129.509 90.6988 129.116 91.2222 128.761C92.3614 127.996 93.4365 127.139 94.4371 126.2C95.6237 125.19 96.7183 124.077 97.708 122.873L99.3528 121.004L100.867 118.817C101.915 117.265 102.864 115.648 103.708 113.976C104.165 113.097 104.571 112.192 104.923 111.266C105.352 110.346 105.733 109.404 106.063 108.444C106.763 106.441 107.35 104.4 107.82 102.332C108.044 101.266 108.362 100.22 108.511 99.1168C108.661 98.014 108.829 96.9112 108.997 95.7898C109.164 94.6689 109.263 93.5393 109.297 92.4067C109.297 91.2665 109.502 90.1077 109.483 88.9488C109.511 86.6029 109.417 84.2572 109.203 81.921C108.797 77.159 107.94 72.4464 106.642 67.8466C105.313 63.2342 103.561 58.7542 101.409 54.4637C100.353 52.3693 99.1932 50.3293 97.9323 48.3517C97.3342 47.3424 96.6052 46.4826 96.0632 45.5107C95.4245 44.5668 94.7383 43.656 94.0072 42.7818C93.2782 41.922 92.5679 41.0622 91.839 40.2211C91.11 39.38 90.3063 38.6324 89.5774 37.8474C88.0902 36.332 86.5176 34.9029 84.8672 33.5671C84.1009 32.8755 83.2037 32.3709 82.4 31.698C81.6118 31.1092 80.7946 30.5602 79.9514 30.0532C78.3558 29.0686 76.6946 28.1943 74.9796 27.4364L72.5498 26.3523L70.1386 25.586C68.6592 25.0885 67.1396 24.7195 65.5967 24.4832C64.255 24.207 62.8914 24.0506 61.522 24.0159C60.8865 24.0159 60.2697 23.8851 59.6529 23.9038L57.9894 24.0159C57.0454 24.0431 56.1035 24.118 55.1671 24.2402L53.111 24.6514L51.4102 24.9879L53.111 24.5954L55.1484 24.1281C56.0822 23.9635 57.0244 23.8512 57.9707 23.7916L59.6529 23.6421C60.2323 23.6421 60.8491 23.6421 61.522 23.6421C62.9121 23.64 64.2999 23.7526 65.6714 23.9786C67.2419 24.1765 68.7927 24.5079 70.3069 24.9692L72.7741 25.6981L75.26 26.7261C77.0198 27.477 78.7304 28.3385 80.3814 29.3055C81.2503 29.8098 82.0926 30.3588 82.9046 30.9503C83.7271 31.5484 84.6429 32.0531 85.4466 32.8194C87.1503 34.1416 88.7731 35.5646 90.3063 37.081C91.9312 38.6392 93.4545 40.2998 94.867 42.0529C95.6181 42.938 96.323 43.8613 96.979 44.8191C97.6332 45.7724 98.3809 46.6882 98.9977 47.6976C100.293 49.7033 101.485 51.7746 102.568 53.903C104.779 58.2301 106.581 62.7543 107.951 67.4167C109.255 72.1221 110.106 76.9414 110.493 81.8088C110.694 84.1832 110.775 86.5662 110.736 88.9488C110.736 90.1451 110.586 91.3039 110.53 92.4628C110.474 93.6216 110.418 94.7804 110.194 95.9206C109.915 98.1563 109.497 100.372 108.941 102.556C108.436 104.652 107.812 106.718 107.072 108.743C106.72 109.718 106.315 110.672 105.857 111.602C105.48 112.536 105.05 113.447 104.568 114.331C103.692 116.029 102.692 117.659 101.577 119.21L100.026 121.397L98.3061 123.266C97.2543 124.451 96.1037 125.545 94.867 126.537C93.8253 127.454 92.7058 128.28 91.5212 129.004C90.9979 129.359 90.4933 129.733 89.9886 130.013L88.4746 130.761C87.5027 131.209 86.6055 131.714 85.8952 131.976L83.914 132.649L82.2318 133.228Z" fill="#FFC747"/>
<path id="Vector_8" d="M96.9587 28.1806C96.4134 27.4844 95.7858 26.8568 95.0896 26.3115C94.8147 26.0785 94.4923 25.9081 94.1449 25.812C93.7976 25.716 93.4335 25.6967 93.0779 25.7553C92.7223 25.814 92.3837 25.9493 92.0856 26.1518C91.7875 26.3544 91.5369 26.6193 91.3514 26.9283C90.5103 28.6292 91.557 30.031 92.6037 31.3207C93.0201 31.8982 93.6489 32.2866 94.3517 32.4006C95.0545 32.5145 95.7738 32.3446 96.3513 31.9281C96.9288 31.5117 97.3172 30.883 97.4311 30.1802C97.5451 29.4774 97.3751 28.7581 96.9587 28.1806Z" fill="white"/>
<path id="Vector_9" d="M40.8846 127.227C40.1408 126.335 39.0846 125.76 37.9314 125.62L37.651 125.489C36.3987 124.854 35.4642 126.386 36.0623 127.358C36.0623 128.611 37.2585 129.695 38.1183 130.461C38.5612 130.819 39.127 130.988 39.6935 130.932C40.2601 130.876 40.7819 130.599 41.1463 130.162C41.4761 129.728 41.6321 129.187 41.5837 128.644C41.5353 128.101 41.286 127.596 40.8846 127.227Z" fill="white"/>
<path id="Vector_10" d="M48.3636 117.79C47.8029 117.304 46.9618 118.089 47.4291 118.669C47.8964 119.248 48.943 121.491 50.3075 121.173C50.415 121.155 50.5142 121.104 50.5913 121.027C50.6683 120.95 50.7194 120.851 50.7374 120.743C51.0365 119.416 49.1113 118.482 48.3636 117.79Z" fill="white"/>
<path id="Vector_11" d="M93.6142 39.2088L93.4086 38.9658C92.0629 37.4331 89.9134 39.5265 91.4087 40.8349L91.6517 41.0592C92.8105 42.0498 94.6423 40.3676 93.6142 39.2088Z" fill="white"/>
</g>
<defs>
<linearGradient id="paint0_linear_505_1371" x1="92.7362" y1="143.995" x2="56.3805" y2="14.7302" gradientUnits="userSpaceOnUse">
<stop stop-color="#CD7D0A"/>
<stop offset="0.26" stop-color="#AF5203"/>
<stop offset="0.5" stop-color="#974B00"/>
<stop offset="0.74" stop-color="#BC6D07"/>
<stop offset="1" stop-color="#D0800A"/>
</linearGradient>
<linearGradient id="paint1_linear_505_1371" x1="29.1297" y1="97.654" x2="86.0199" y2="69.6159" gradientUnits="userSpaceOnUse">
<stop stop-color="#FFDD40"/>
<stop offset="1" stop-color="#E29A0A"/>
</linearGradient>
<linearGradient id="paint2_linear_505_1371" x1="-4.51843" y1="122.88" x2="80.6956" y2="71.5153" gradientUnits="userSpaceOnUse">
<stop offset="0.2" stop-color="#FFFF9F"/>
<stop offset="1" stop-color="#FFFA6D"/>
</linearGradient>
</defs>
</svg>
