<svg width="302" height="386" viewBox="0 0 302 386" fill="none" xmlns="http://www.w3.org/2000/svg">
<g style="mix-blend-mode:color-burn" opacity="0.1">
<path d="M301.023 133.792H289.328V385.23H230.854V133.792H219.16L260.091 92.8604L301.023 133.792Z" fill="#212121"/>
</g>
<path d="M263.774 127.565H252.323V385.229H195.064V127.565H183.612L223.693 87.4839L263.774 127.565Z" fill="#313231"/>
<g style="mix-blend-mode:color-burn" opacity="0.2">
<path d="M53.4861 199.729C67.5005 199.729 78.8615 188.368 78.8615 174.353C78.8615 160.339 67.5005 148.978 53.4861 148.978C39.4718 148.978 28.1108 160.339 28.1108 174.353C28.1108 188.368 39.4718 199.729 53.4861 199.729Z" fill="#FFD740"/>
</g>
<path d="M48.4109 194.653C62.4253 194.653 73.7863 183.293 73.7863 169.278C73.7863 155.264 62.4253 143.903 48.4109 143.903C34.3966 143.903 23.0356 155.264 23.0356 169.278C23.0356 183.293 34.3966 194.653 48.4109 194.653Z" fill="#FFC400"/>
<path d="M30.4655 151.334C26.9174 154.883 24.5013 159.405 23.5227 164.327C22.5442 169.249 23.0471 174.351 24.9679 178.987C26.8887 183.623 30.1411 187.586 34.3139 190.374C38.4867 193.162 43.3925 194.65 48.411 194.65C53.4294 194.65 58.3352 193.162 62.508 190.374C66.6808 187.586 69.9333 183.623 71.8541 178.987C73.7748 174.351 74.2778 169.249 73.2992 164.327C72.3206 159.405 69.9045 154.883 66.3564 151.334C61.5963 146.576 55.1414 143.903 48.411 143.903C41.6805 143.903 35.2256 146.576 30.4655 151.334ZM62.7673 183.636C59.928 186.474 56.3109 188.407 52.3732 189.19C48.4355 189.973 44.354 189.571 40.6449 188.034C36.9359 186.497 33.7657 183.895 31.5353 180.557C29.305 177.219 28.1145 173.294 28.1145 169.28C28.1145 165.265 29.305 161.34 31.5353 158.002C33.7657 154.664 36.9359 152.062 40.6449 150.525C44.354 148.988 48.4355 148.586 52.3732 149.369C56.3109 150.152 59.928 152.085 62.7673 154.923C64.6529 156.808 66.1487 159.046 67.1692 161.51C68.1897 163.973 68.715 166.613 68.715 169.28C68.715 171.946 68.1897 174.586 67.1692 177.049C66.1487 179.513 64.6529 181.751 62.7673 183.636Z" fill="#DCB300"/>
<g style="mix-blend-mode:color-burn" opacity="0.2">
<path d="M142.13 125.577C156.145 125.577 167.505 114.216 167.505 100.202C167.505 86.1876 156.145 74.8267 142.13 74.8267C128.116 74.8267 116.755 86.1876 116.755 100.202C116.755 114.216 128.116 125.577 142.13 125.577Z" fill="#FFD740"/>
</g>
<path d="M137.055 120.502C151.069 120.502 162.43 109.141 162.43 95.1268C162.43 81.1124 151.069 69.7515 137.055 69.7515C123.041 69.7515 111.68 81.1124 111.68 95.1268C111.68 109.141 123.041 120.502 137.055 120.502Z" fill="#F7BE00"/>
<path d="M155 77.1825C151.451 73.6332 146.93 71.216 142.007 70.2365C137.085 69.257 131.982 69.7592 127.345 71.6797C122.708 73.6001 118.745 76.8525 115.957 81.0256C113.168 85.1986 111.68 90.1049 111.68 95.1239C111.68 100.143 113.168 105.049 115.957 109.222C118.745 113.395 122.708 116.648 127.345 118.568C131.982 120.488 137.085 120.991 142.007 120.011C146.93 119.032 151.451 116.614 155 113.065C159.757 108.307 162.43 101.853 162.43 95.1239C162.43 88.3947 159.757 81.9412 155 77.1825ZM122.698 109.476C119.859 106.637 117.927 103.02 117.144 99.082C116.361 95.1443 116.763 91.0628 118.3 87.3538C119.836 83.6447 122.438 80.4746 125.777 78.2442C129.115 76.0138 133.04 74.8233 137.054 74.8233C141.069 74.8233 144.994 76.0138 148.332 78.2442C151.67 80.4746 154.272 83.6447 155.809 87.3538C157.345 91.0628 157.748 95.1443 156.965 99.082C156.182 103.02 154.249 106.637 151.411 109.476C149.526 111.362 147.287 112.858 144.824 113.878C142.361 114.899 139.721 115.424 137.054 115.424C134.388 115.424 131.748 114.899 129.285 113.878C126.821 112.858 124.583 111.362 122.698 109.476Z" fill="#DCB300"/>
<g style="mix-blend-mode:color-burn" opacity="0.2">
<path d="M242.74 64.6129C256.754 64.6129 268.115 53.252 268.115 39.2376C268.115 25.2232 256.754 13.8623 242.74 13.8623C228.726 13.8623 217.365 25.2232 217.365 39.2376C217.365 53.252 228.726 64.6129 242.74 64.6129Z" fill="#FFD740"/>
</g>
<path d="M236.301 51.4274C250.315 51.4274 261.676 40.0665 261.676 26.0521C261.676 12.0377 250.315 0.676758 236.301 0.676758C222.287 0.676758 210.926 12.0377 210.926 26.0521C210.926 40.0665 222.287 51.4274 236.301 51.4274Z" fill="#FFC400"/>
<path d="M218.357 43.9975C221.906 47.5456 226.428 49.9617 231.35 50.9403C236.272 51.9189 241.374 51.416 246.01 49.4952C250.646 47.5744 254.609 44.3219 257.397 40.1491C260.185 35.9763 261.673 31.0706 261.673 26.0521C261.673 21.0336 260.185 16.1278 257.397 11.955C254.609 7.78221 250.646 4.52978 246.01 2.60899C241.374 0.688197 236.272 0.185289 231.35 1.16386C226.428 2.14243 221.906 4.55853 218.357 8.10666C213.599 12.8667 210.926 19.3216 210.926 26.0521C210.926 32.7825 213.599 39.2374 218.357 43.9975ZM250.659 11.6957C253.497 14.535 255.43 18.1522 256.213 22.0899C256.996 26.0276 256.594 30.109 255.057 33.8181C253.52 37.5272 250.918 40.6973 247.58 42.9277C244.242 45.1581 240.317 46.3485 236.302 46.3485C232.288 46.3485 228.363 45.1581 225.025 42.9277C221.687 40.6973 219.085 37.5272 217.548 33.8181C216.011 30.109 215.609 26.0276 216.392 22.0899C217.175 18.1522 219.108 14.535 221.946 11.6957C223.831 9.81012 226.069 8.31434 228.533 7.29382C230.996 6.2733 233.636 5.74804 236.302 5.74804C238.969 5.74804 241.609 6.2733 244.072 7.29382C246.536 8.31434 248.774 9.81012 250.659 11.6957Z" fill="#DCB300"/>
<g style="mix-blend-mode:color-burn" opacity="0.1">
<path d="M193.312 192.377H183.161V385.229H132.411V192.377H122.261L157.786 156.852L193.312 192.377Z" fill="#212121"/>
</g>
<path d="M159.972 182.228H149.822V385.23H99.0715V182.228H88.9214L124.447 146.702L159.972 182.228Z" fill="#313231"/>
<g style="mix-blend-mode:color-burn" opacity="0.1">
<path d="M103.843 268.504H93.6932V385.23H42.9426V268.504H32.7925L68.3179 232.979L103.843 268.504Z" fill="#212121"/>
</g>
<path d="M71.3282 258.354H61.1781V385.23H10.4275V258.354H0.277344L35.8028 222.828L71.3282 258.354Z" fill="#313231"/>
</svg>
