<svg width="158" height="154" viewBox="0 0 158 154" fill="none" xmlns="http://www.w3.org/2000/svg">
<path d="M93.8803 122.016V136.374C93.8803 144.481 87.3091 151.053 79.2019 151.053C71.1723 151.053 64.6331 144.602 64.5243 136.573L64.3275 122.016M93.8803 122.016H64.3275M93.8803 122.016C93.8803 117.014 97.0595 112.67 101.255 109.948C111.959 103.001 119.006 91.1807 119.006 77.7687C119.006 56.3865 101.097 39.0527 79.0059 39.0527C56.9145 39.0527 39.0059 56.3865 39.0059 77.7687C39.0059 91.1799 46.0512 102.999 56.7551 109.946C60.9694 112.682 64.2083 116.993 64.3275 122.016M79.0059 19.0527V3.05273M139.006 79.0527H155.006M121.431 121.479L132.744 132.793M3.00586 79.0527H19.0059M25.2663 25.3125L36.5801 36.6263M36.5774 121.478L25.2637 132.791M132.745 25.3132L121.431 36.627" stroke="white" stroke-width="5" stroke-linecap="round"/>
</svg>
