<svg width="127" height="127" viewBox="0 0 127 127" fill="none" xmlns="http://www.w3.org/2000/svg">
<path d="M24.8083 86.05C37.1312 107.394 64.4236 114.707 85.767 102.384C95.6039 96.7043 102.46 87.846 105.788 77.8552C106.26 76.4377 105.338 74.9667 103.873 74.6758L90.4589 72.0167C87.856 71.5006 85.3307 73.0478 84.0277 75.3594C82.0206 78.9199 79.0633 82.0054 75.267 84.1972C63.9674 90.7209 49.5187 86.8495 42.9949 75.55C36.471 64.2504 40.3426 49.8014 51.6422 43.2775C51.8787 43.1409 52.1165 43.009 52.3557 42.8815C54.6324 41.6682 56.2132 39.2807 55.8478 36.727L53.8748 22.9218C53.6674 21.4714 52.2619 20.5021 50.8566 20.9168C47.5344 21.8972 44.2743 23.2827 41.1422 25.091C19.7984 37.4138 12.4855 64.7061 24.8083 86.05Z" stroke="#F7BE00" stroke-width="5" stroke-linecap="round"/>
<path d="M85.5149 55.2708C85.0766 54.1332 84.5442 53.0146 83.9158 51.9254C81.0514 46.9644 76.6598 43.4352 71.6775 41.589C69.1649 40.658 67.2266 38.3723 67.3557 35.6961L67.8755 24.9132C68.0204 21.8978 70.6853 19.5982 73.6242 20.2868C85.2073 22.9999 95.6847 30.31 102.102 41.4254C104.411 45.4237 106.03 49.6308 106.997 53.909C107.683 56.9435 105.2 59.6189 102.089 59.5853L91.0043 59.4645C88.4964 59.4372 86.4164 57.6113 85.5149 55.2708Z" stroke="#F7BE00" stroke-width="5" stroke-linecap="round"/>
</svg>
