<svg width="100" height="101" viewBox="0 0 100 101" fill="none" xmlns="http://www.w3.org/2000/svg">
<path d="M66.666 75.4297V35.8464C66.666 33.5452 68.5314 31.6797 70.8327 31.6797H79.166C81.4673 31.6797 83.3327 33.5452 83.3327 35.8464V75.4297C83.3327 77.7309 81.4673 79.5964 79.166 79.5964H70.8327C68.5314 79.5964 66.666 77.7309 66.666 75.4297Z" stroke="black" stroke-width="5" stroke-linecap="round"/>
<path d="M41.666 75.4284V25.4284C41.666 23.1272 43.5314 21.2617 45.8327 21.2617H54.166C56.4673 21.2617 58.3327 23.1272 58.3327 25.4284V75.4284C58.3327 77.7296 56.4673 79.5951 54.166 79.5951H45.8327C43.5314 79.5951 41.666 77.7296 41.666 75.4284Z" stroke="black" stroke-width="5" stroke-linecap="round"/>
<path d="M16.666 75.4297V48.3464C16.666 46.0451 18.5286 44.1797 20.8298 44.1797H29.1684C31.4696 44.1797 33.3327 46.0451 33.3327 48.3464V75.4297C33.3327 77.7309 31.4672 79.5964 29.166 79.5964H20.8327C18.5315 79.5964 16.666 77.7309 16.666 75.4297Z" stroke="black" stroke-width="5" stroke-linecap="round"/>
</svg>
