<svg width="218" height="183" viewBox="0 0 218 183" fill="none" xmlns="http://www.w3.org/2000/svg">
<path d="M134.549 91.2569C134.549 120.705 128.94 143.299 117.722 159.039C106.505 174.779 91.0259 182.645 71.2866 182.638C51.5509 182.638 36.0723 174.772 24.8507 159.039C13.629 143.306 8.02006 120.712 8.02368 91.2569C8.02368 76.6196 9.50068 63.6651 12.4547 52.3934C15.4087 41.1216 19.6675 31.6159 25.2312 23.8761C30.7985 16.1399 37.4623 10.251 45.2224 6.20935C52.9826 2.16773 61.6706 0.148734 71.2866 0.152349C91.0222 0.152349 106.501 8.01688 117.722 23.7459C128.944 39.475 134.553 61.9786 134.549 91.2569ZM96.0839 91.2569C96.1259 83.286 95.703 75.3195 94.8171 67.3976C93.9726 60.2506 92.6243 54.0671 90.7721 48.847C88.92 43.6269 86.3828 39.5889 83.1606 36.733C79.9601 33.8735 75.9967 32.4437 71.2703 32.4437C66.5438 32.4437 62.6221 33.8735 59.505 36.733C56.3806 39.5961 53.8434 43.6341 51.8934 48.847C49.9434 54.0599 48.5534 60.2434 47.7234 67.3976C46.8348 75.3192 46.4118 83.286 46.4566 91.2569C46.4146 99.2674 46.8376 107.274 47.7234 115.235C48.5606 122.466 49.9507 128.691 51.8934 133.911C53.8362 139.131 56.3734 143.169 59.505 146.025C62.6257 148.888 66.5475 150.318 71.2703 150.314C75.993 150.31 79.9565 148.881 83.1606 146.025C86.3683 143.169 88.9055 139.131 90.7721 133.911C92.6388 128.691 93.9871 122.466 94.8171 115.235C95.7002 107.273 96.1232 99.2674 96.0839 91.2569Z" fill="white"/>
<path d="M150.218 35.1711C140.416 38.2636 131.754 44.1855 125.326 52.188C118.899 60.1904 114.995 69.9141 114.108 80.1294C113.221 90.3447 115.391 100.593 120.344 109.578C125.297 118.564 132.809 125.882 141.932 130.609C151.055 135.336 161.378 137.259 171.597 136.134C181.815 135.01 191.47 130.888 199.34 124.291C207.21 117.694 212.942 108.918 215.812 99.0718C218.681 89.2257 218.559 78.7521 215.46 68.9754C213.402 62.4828 210.082 56.458 205.69 51.2453C201.297 46.0325 195.918 41.7338 189.859 38.5947C183.801 35.4556 177.182 33.5375 170.38 32.9501C163.578 32.3627 156.727 33.1174 150.218 35.1711ZM155.296 51.1839C154.521 51.4296 153.69 51.4404 152.909 51.215C152.128 50.9895 151.431 50.538 150.907 49.9176C150.383 49.2971 150.056 48.5356 149.966 47.7294C149.876 46.9232 150.028 46.1086 150.403 45.3886C150.778 44.6686 151.358 44.0757 152.071 43.6849C152.783 43.294 153.596 43.1228 154.406 43.1929C155.217 43.263 155.988 43.5712 156.622 44.0786C157.257 44.5861 157.726 45.2698 157.971 46.0433C158.297 47.0788 158.199 48.201 157.697 49.1644C157.196 50.1277 156.333 50.8539 155.296 51.1839Z" fill="black"/>
<path d="M157.661 76.0416C159.212 80.9364 159.147 85.0792 157.465 88.4701C155.783 91.861 152.824 94.2217 148.587 95.552C144.36 96.886 140.584 96.6474 137.256 94.8362C133.929 93.0251 131.495 89.6812 129.955 84.8045C128.403 79.9133 128.469 75.7723 130.15 72.3814C131.832 68.9905 134.784 66.6244 139.007 65.2832C143.23 63.9493 147.006 64.1879 150.337 65.999C153.668 67.8102 156.109 71.1577 157.661 76.0416ZM148.815 78.8396C147.974 76.1826 146.887 74.4058 145.553 73.5093C144.953 73.0848 144.263 72.8047 143.536 72.6912C142.81 72.5777 142.066 72.6337 141.365 72.8549C140.664 73.0761 140.024 73.4565 139.495 73.9662C138.966 74.4758 138.562 75.1008 138.316 75.7922C137.784 77.278 137.938 79.3458 138.779 81.9956C139.62 84.6454 140.691 86.4403 141.992 87.3802C142.583 87.8334 143.278 88.1336 144.014 88.2537C144.751 88.3739 145.505 88.3104 146.211 88.0689C146.917 87.8538 147.561 87.4711 148.086 86.9535C148.612 86.436 149.004 85.799 149.228 85.0973C149.797 83.5754 149.66 81.4895 148.815 78.8396ZM168.513 57.3446L179.386 53.9121L165.941 117.649L155.067 121.076L168.513 57.3446ZM204.657 90.162C206.204 95.0531 206.139 99.1942 204.461 102.585C202.783 105.976 199.831 108.338 195.604 109.672C191.382 110.999 187.605 110.759 184.274 108.951C180.943 107.144 178.502 103.794 176.951 98.9031C175.399 94.012 175.465 89.871 177.146 86.48C178.828 83.0891 181.78 80.7231 186.003 79.3819C190.229 78.048 194.006 78.2884 197.333 80.1031C200.661 81.9179 203.102 85.269 204.657 90.1565V90.162ZM195.811 92.9383C194.974 90.2885 193.886 88.5117 192.549 87.6079C191.949 87.1834 191.259 86.9034 190.532 86.7899C189.805 86.6763 189.062 86.7324 188.361 86.9536C187.66 87.1748 187.02 87.5552 186.491 88.0648C185.962 88.5745 185.558 89.1995 185.312 89.8908C184.78 91.3766 184.934 93.4462 185.775 96.0997C186.615 98.7531 187.686 100.546 188.988 101.479C189.584 101.916 190.275 102.207 191.004 102.327C191.734 102.447 192.482 102.394 193.188 102.172C193.893 101.949 194.536 101.564 195.063 101.047C195.591 100.529 195.989 99.8954 196.224 99.196C196.793 97.6813 196.655 95.5954 195.811 92.9383Z" fill="#F7BE00"/>
<path d="M153.481 43.2343C149.555 52.8105 138.431 62.5711 118.788 62.5711C116.085 62.5544 113.385 62.3733 110.704 62.0289C94.3333 60.0008 83.1933 49.66 82.3016 36.0006C81.2401 35.1733 80.0806 34.4795 78.8493 33.9346C78.697 50.4083 91.3159 63.0429 110.285 65.3855C113.115 65.7404 115.963 65.9215 118.815 65.9277C140.323 65.9277 152.524 54.8548 156.737 44.167C156.292 43.789 155.772 43.5102 155.21 43.3493C154.648 43.1885 154.059 43.1492 153.481 43.2343Z" fill="white"/>
<path d="M102.765 9.01286C111.616 4.63685 120.608 3.95903 129.014 7.08785C139.828 11.1114 148.945 21.3492 153.441 34.2712C154.554 33.9964 155.667 33.7578 156.78 33.5554C152.001 19.5164 142.062 8.34589 130.199 3.91565C123.098 1.27486 112.257 -0.129586 99.3831 6.95229C100.536 7.59215 101.663 8.27901 102.765 9.01286Z" fill="white"/>
</svg>
