<svg width="101" height="101" viewBox="0 0 101 101" fill="none" xmlns="http://www.w3.org/2000/svg">
<path d="M63.5913 42.5586L49.5379 60.064C47.985 61.9986 45.0967 62.1561 43.3425 60.4019L37.5371 54.5965" stroke="black" stroke-width="5" stroke-linecap="round"/>
<path d="M54.4466 18.3235C55.3116 17.7667 55.7441 17.4884 56.095 17.307C60.5283 15.0149 65.9683 17.1069 67.7233 21.7788C67.862 22.1484 67.9966 22.6449 68.2658 23.6378C68.39 24.0962 68.452 24.3254 68.5216 24.5363C69.3625 27.0911 71.3845 29.0831 73.9516 29.8853C74.1637 29.9515 74.3937 30.0101 74.8541 30.1275L75.4791 30.2867C77.6416 30.838 78.7229 31.1136 79.5125 31.5053C83.102 33.2853 84.9166 37.3678 83.8329 41.225C83.5945 42.0736 83.0745 43.061 82.035 45.0356L81.7345 45.6064C81.5133 46.0264 81.4025 46.2368 81.3095 46.4385C80.185 48.8814 80.3087 51.7172 81.642 54.0535C81.752 54.246 81.8804 54.446 82.1375 54.8451C82.6941 55.7101 82.9725 56.1426 83.1541 56.4935C85.4462 60.9268 83.3541 66.3668 78.682 68.1218C78.3125 68.2606 77.8162 68.3951 76.8233 68.6643C76.365 68.7885 76.1354 68.8506 75.9245 68.9201C73.37 69.761 71.3779 71.7831 70.5758 74.3501C70.5095 74.5622 70.4508 74.7922 70.3337 75.2526L70.1741 75.8772C69.6229 78.0401 69.3475 79.1214 68.9558 79.911C67.1758 83.5006 63.0933 85.3151 59.2362 84.2314C58.3875 83.9931 57.4 83.4731 55.4254 82.4331L54.855 82.1326C54.4345 81.9114 54.2245 81.801 54.0229 81.7081C51.5795 80.5835 48.7437 80.7072 46.4079 82.0401C46.215 82.1506 46.0154 82.2789 45.6158 82.536C44.7508 83.0926 44.3183 83.371 43.9675 83.5526C39.5343 85.8447 34.0943 83.7526 32.3392 79.0806C32.2003 78.711 32.0658 78.2147 31.7967 77.2218C31.6724 76.7631 31.6103 76.5339 31.5409 76.3231C30.7001 73.7685 28.6779 71.7764 26.1107 70.9743C25.8988 70.9081 25.6687 70.8493 25.2085 70.7318L24.5836 70.5726C22.421 70.0214 21.3398 69.746 20.55 69.3543C16.9606 67.5743 15.146 63.4918 16.2296 59.6343C16.468 58.786 16.988 57.7985 18.0278 55.8239L18.3282 55.2531C18.5495 54.8331 18.6601 54.6226 18.7529 54.421C19.8775 51.9781 19.7538 49.1422 18.4206 46.806C18.3106 46.6135 18.1821 46.4135 17.925 46.0143C17.3683 45.1493 17.0899 44.7168 16.9085 44.366C14.6165 39.9328 16.7085 34.4927 21.3804 32.7376C21.75 32.5988 22.2465 32.4642 23.2393 32.1951C23.6977 32.0709 23.927 32.0088 24.1379 31.9394C26.6927 31.0986 28.6846 29.0764 29.4868 26.5092C29.553 26.2973 29.6117 26.0671 29.729 25.6069L29.8883 24.9821C30.4396 22.8195 30.7152 21.7382 31.1068 20.9485C32.8869 17.3591 36.9693 15.5444 40.8265 16.6281C41.6752 16.8665 42.6625 17.3864 44.637 18.4262L45.2079 18.7266C45.6279 18.9479 45.8383 19.0585 46.04 19.1514C48.4829 20.276 51.3187 20.1522 53.655 18.8191C53.8475 18.709 54.0475 18.5805 54.4466 18.3235Z" stroke="black" stroke-width="5" stroke-linecap="round"/>
</svg>
