<svg width="239" height="171" viewBox="0 0 239 171" fill="none" xmlns="http://www.w3.org/2000/svg">
<path d="M167.498 169.544C168.411 170.003 169.434 170.2 170.453 170.114C171.472 170.028 172.447 169.662 173.27 169.056L235.853 122.903C236.547 122.388 237.111 121.719 237.499 120.948C237.887 120.177 238.09 119.326 238.09 118.463C238.09 117.6 237.887 116.749 237.499 115.978C237.111 115.207 236.547 114.537 235.853 114.023L173.281 67.5737C172.459 66.9646 171.484 66.5956 170.464 66.5077C169.444 66.4199 168.42 66.6166 167.505 67.0761C166.591 67.5356 165.822 68.2398 165.284 69.1103C164.747 69.9808 164.461 70.9833 164.46 72.0063V90.5771H88.9612C88.2353 90.576 87.5163 90.7181 86.8454 90.9954C86.1746 91.2726 85.5651 91.6795 85.0519 92.1927C84.5387 92.7059 84.1319 93.3153 83.8549 93.986C83.5779 94.6567 83.436 95.3754 83.4375 96.101V140.526C83.4368 141.251 83.5792 141.969 83.8566 142.638C84.1341 143.308 84.541 143.916 85.0542 144.429C85.5674 144.941 86.1767 145.347 86.8472 145.623C87.5176 145.899 88.236 146.04 88.9612 146.038H164.46V164.609C164.461 165.632 164.745 166.635 165.281 167.506C165.818 168.377 166.585 169.082 167.498 169.544Z" fill="white"/>
<path d="M71.3182 103.279C70.4047 103.738 69.382 103.935 68.3633 103.849C67.3446 103.763 66.3696 103.397 65.5462 102.791L2.96281 56.6379C2.26907 56.1238 1.70546 55.4545 1.31711 54.6835C0.928757 53.9126 0.726471 53.0614 0.726471 52.1982C0.726471 51.3351 0.928757 50.4839 1.31711 49.7129C1.70546 48.942 2.26907 48.2726 2.96281 47.7586L65.5349 1.30908C66.3572 0.699956 67.3326 0.330923 68.3523 0.243074C69.3721 0.155224 70.3962 0.351994 71.3107 0.811496C72.2252 1.271 72.9941 1.97519 73.5319 2.84565C74.0696 3.71611 74.3551 4.71866 74.3565 5.7417V24.3125H149.855C150.581 24.3114 151.3 24.4535 151.971 24.7307C152.642 25.008 153.251 25.4149 153.764 25.928C154.277 26.4412 154.684 27.0507 154.961 27.7213C155.238 28.392 155.38 29.1108 155.379 29.8363V74.2613C155.379 74.9861 155.237 75.704 154.96 76.3737C154.682 77.0434 154.275 77.6518 153.762 78.1639C153.249 78.676 152.639 79.0819 151.969 79.3582C151.299 79.6344 150.58 79.7757 149.855 79.7738H74.3565V98.3446C74.3556 99.3674 74.0713 100.37 73.5349 101.241C72.9986 102.112 72.2313 102.818 71.3182 103.279Z" fill="black"/>
</svg>
