<svg width="127" height="127" viewBox="0 0 127 127" fill="none" xmlns="http://www.w3.org/2000/svg">
<path d="M101.289 29.4454L67.1643 17.4013C64.9031 16.6032 62.4367 16.6032 60.1755 17.4013L26.0503 29.4454C21.8523 30.9271 19.0449 34.895 19.0449 39.3468V80.3796C19.0449 84.4468 21.3939 88.1486 25.0741 89.88L59.199 105.939C62.0309 107.272 65.309 107.272 68.1408 105.939L102.266 89.88C105.946 88.1486 108.295 84.4468 108.295 80.3796V39.3468C108.295 34.895 105.488 30.9271 101.289 29.4454Z" stroke="#F7BE00" stroke-width="5" stroke-linecap="round"/>
<path d="M63.6699 52.918L93.2012 37.8242M63.6699 52.918L34.1387 37.8242M63.6699 52.918V92.293" stroke="#F7BE00" stroke-width="5" stroke-linecap="round"/>
</svg>
