<svg width="203" height="211" viewBox="0 0 203 211" fill="none" xmlns="http://www.w3.org/2000/svg">
<g clip-path="url(#clip0_505_1286)">
<path d="M145.037 197.069C150.186 192.886 151.471 185.27 149.176 177.322C147.813 172.757 145.551 168.51 142.521 164.831C141.894 164.052 141.233 163.313 140.562 162.606C134.546 156.27 127.08 152.758 120.574 152.758C117.138 152.758 113.977 153.739 111.437 155.798L110.314 156.703C119.148 157.922 133.081 169.396 139.598 181.13L139.667 181.257C143.185 187.643 144.319 193.571 143.037 198.685L145.037 197.069Z" fill="black"/>
<path d="M132.762 204.4L132.729 204.43L132.762 204.408V204.4Z" fill="#616E7D"/>
<path d="M155.257 89.6335V63.9727H155.152L137.012 89.6335H155.257Z" fill="white"/>
<path d="M53.5437 84.6715C60.8764 78.7035 60.4001 65.7649 52.7895 54.788C52.2157 53.9658 51.6167 53.1652 50.9852 52.3683C45.8537 46.0541 39.3041 42.0369 33.1333 40.7423C31.7699 40.4327 30.3778 40.2659 28.9798 40.2446C26.3536 40.2073 23.7658 40.8774 21.4883 42.1847C24.202 42.6607 27.0059 44.0996 29.7448 46.0901C35.0928 49.9775 40.1737 56.0321 43.7643 61.5386C46.1893 65.2636 53.1756 76.8896 52.2157 85.7462L53.5437 84.6715Z" fill="black"/>
<path d="M135.138 205.154C135.546 204.826 135.932 204.476 136.303 204.119L136.343 204.058C136.822 203.749 137.284 203.415 137.729 203.059C138.09 202.76 138.451 202.435 138.783 202.111C142.525 196.204 141.027 188.88 137.068 181.964C130.212 169.963 115.965 159.191 108.831 159.191C107.85 159.143 106.882 159.429 106.085 160.003L103.703 161.935L102.321 163.068L100.611 164.46C99.2702 165.6 97.5845 166.255 95.8255 166.32C95.236 166.352 94.6469 166.25 94.103 166.02C93.5591 165.791 93.0745 165.441 92.686 164.997L88.5649 159.948C85.3677 153.075 78.2046 142.333 68.9773 130.984C59.75 119.636 50.6635 110.448 44.583 105.915L40.5594 100.978C38.9608 99.0129 39.9207 95.598 42.6957 93.3442L43.2117 92.9187L44.4098 91.945L46.6074 90.142L48.6499 88.494L48.9133 88.2668C52.973 79.0893 40.3284 57.1103 28.4561 48.3151C25.3202 45.9964 22.2456 44.5792 19.5391 44.5792C18.9503 44.5764 18.3635 44.6479 17.7926 44.7919L15.7429 46.4616L14.949 47.1106L12.4229 49.1481L12.0621 49.433L10.698 50.5436L9.83554 51.2468L7.94463 52.7866L8.03846 52.902C-8.36996 69.8722 4.50199 115.183 37.9467 156.263C65.0114 189.504 97.489 210.131 119.502 210.131C124.709 210.131 129.332 208.969 133.153 206.55L133.38 206.388L133.409 206.362L133.38 206.395C133.99 206.015 134.576 205.601 135.138 205.154Z" fill="black"/>
<path d="M132.782 204.379L132.76 204.401V204.409L132.782 204.379Z" fill="white"/>
<path d="M97.9919 77.6683C96.9924 79.2747 95.8538 80.7902 94.589 82.1976C92.8049 84.1616 90.884 85.9968 88.8405 87.6896L76.932 98.0427C76.3154 98.5544 75.7353 99.1087 75.1962 99.7015C74.7763 100.176 74.413 100.697 74.1137 101.256C73.8219 101.821 73.6256 102.43 73.5327 103.059C73.4174 103.866 73.3631 104.681 73.3703 105.496C73.3497 106.323 73.4321 107.149 73.6157 107.956C73.6989 108.492 73.9526 108.987 74.3394 109.367C74.7261 109.748 75.2252 109.994 75.7628 110.069C76.4317 110.192 77.1108 110.25 77.7909 110.242H117.377C117.712 110.247 118.042 110.164 118.334 110C118.641 109.816 118.882 109.538 119.019 109.207C119.224 108.749 119.359 108.263 119.42 107.765C119.519 107.058 119.564 106.344 119.553 105.63C119.561 104.929 119.508 104.23 119.395 103.538C119.32 103.033 119.158 102.545 118.915 102.096C118.732 101.768 118.467 101.494 118.146 101.299C117.846 101.129 117.506 101.041 117.161 101.043H90.0277L98.0569 94.3609C101.455 91.6816 104.707 88.8227 107.8 85.7964C109.911 83.7458 111.822 81.5 113.509 79.0891C114.711 77.3596 115.604 75.4358 116.151 73.4023C116.576 71.6528 116.791 69.8586 116.789 68.0581C116.804 66.0496 116.357 64.0645 115.483 62.256C114.562 60.4024 113.199 58.8036 111.513 57.6005C109.496 56.1796 107.234 55.1407 104.841 54.5353C101.775 53.7631 98.6202 53.3993 95.4587 53.4535C93.2664 53.4463 91.0771 53.6176 88.9126 53.9656C86.972 54.2789 85.0514 54.7052 83.1605 55.2421C81.6642 55.6588 80.1981 56.1768 78.7724 56.7928C77.9124 57.1411 77.0932 57.5825 76.3294 58.109C75.9805 58.3601 75.6674 58.6573 75.3983 58.9925C75.2071 59.2532 75.0619 59.5447 74.9689 59.8543C74.8551 60.2349 74.7742 60.6246 74.7271 61.0191C74.6701 61.5701 74.6436 62.1239 74.6477 62.6779C74.6414 63.5069 74.6872 64.3356 74.7849 65.1589C74.8423 65.709 74.9572 66.2517 75.1277 66.778C75.2266 67.1134 75.4209 67.4128 75.687 67.6398C75.9276 67.8153 76.2193 67.9065 76.517 67.8995C77.1969 67.8273 77.8505 67.5976 78.426 67.2287C79.2451 66.7852 80.2628 66.2948 81.4897 65.7611C82.8716 65.1793 84.2934 64.6972 85.7443 64.3186C87.5609 63.8633 89.4288 63.6451 91.3016 63.6695C92.6187 63.6442 93.9315 63.8267 95.1916 64.2105C96.1945 64.5177 97.1249 65.0243 97.927 65.6998C98.6375 66.3071 99.2023 67.0663 99.5797 67.9211C99.9544 68.7708 100.145 69.69 100.139 70.6185C100.129 71.7246 99.9771 72.8249 99.688 73.8928C99.3005 75.2238 98.7297 76.4944 97.9919 77.6683Z" fill="#F7BE00"/>
<path d="M155.548 109.535C155.856 109.807 156.229 109.993 156.631 110.076C157.311 110.248 158.006 110.356 158.706 110.401C159.576 110.473 160.647 110.509 161.929 110.509C163.276 110.509 164.374 110.473 165.223 110.401C165.924 110.353 166.62 110.244 167.302 110.076C167.712 109.992 168.094 109.806 168.413 109.535L168.734 108.785V98.6882H174.869C175.511 98.6882 176.017 98.3023 176.388 97.545C176.76 96.7878 176.948 95.6663 176.948 94.2022C176.948 92.5614 176.742 91.3931 176.334 90.6863C175.926 89.9795 175.403 89.6297 174.855 89.6297H168.72V56.0391C168.713 55.8682 168.66 55.7022 168.568 55.5584C168.475 55.4145 168.346 55.2979 168.193 55.2205C167.672 54.9307 167.104 54.7331 166.515 54.6363C165.505 54.4483 164.482 54.3338 163.455 54.2937C162.178 54.2216 160.634 54.1855 158.825 54.1855C157.158 54.1855 155.741 54.2132 154.574 54.2685C153.6 54.3099 152.629 54.4038 151.666 54.5498C151.057 54.6374 150.461 54.7972 149.89 55.0258C149.531 55.1603 149.218 55.3927 148.984 55.6965L127.582 86.2688C127.252 86.7643 126.958 87.2824 126.701 87.8194C126.466 88.3175 126.287 88.84 126.167 89.3773C126.037 89.9812 125.948 90.5932 125.9 91.2092C125.85 91.8835 125.821 92.6841 125.821 93.6C125.805 94.5028 125.868 95.4053 126.008 96.2973C126.082 96.8521 126.282 97.3825 126.593 97.8479C126.831 98.1875 127.181 98.4326 127.582 98.5403C128.015 98.6467 128.46 98.6976 128.906 98.6918H155.249V108.789L155.548 109.535ZM137.007 89.6297L155.148 63.9725H155.253V89.6297H137.007Z" fill="#F7BE00"/>
<path d="M55.1823 86.6901L49.7369 91.0968L49.1631 91.4213L48.2574 92.1425L46.0489 93.9455L44.8653 94.9084L44.3384 95.3339C42.5341 96.8088 42.0758 98.7092 42.5774 99.3006L46.3917 103.988C52.8872 108.9 62.064 118.33 70.9881 129.303C79.9122 140.276 87.3207 151.188 90.785 158.512L94.7004 163.323C94.9746 163.655 95.5665 163.684 95.8118 163.684C96.9745 163.616 98.0821 163.166 98.9622 162.403L100.676 161.015L102.066 159.879L104.48 157.917C104.76 157.7 105.058 157.507 105.371 157.34L109.799 153.734C112.718 151.369 116.442 150.128 120.574 150.128C127.932 150.128 136.091 154.095 142.446 160.788C143.233 161.614 143.918 162.393 144.532 163.157C147.688 166.99 150.069 171.399 151.543 176.139C182.025 160.882 202.959 129.404 202.959 93.0188C202.959 41.7007 161.33 0.0937553 109.968 0.0937553C95.2901 0.0887881 80.8198 3.56212 67.7451 10.2287C54.6704 16.8953 43.3641 26.565 34.7539 38.4444C41.3 40.1393 47.9254 44.5134 52.9919 50.7303C53.6595 51.5597 54.3126 52.4288 54.9225 53.3123C63.3992 65.5621 63.5146 79.9143 55.1823 86.6901ZM125.911 91.2086C125.959 90.5926 126.048 89.9806 126.178 89.3767C126.299 88.8393 126.478 88.3169 126.712 87.8188C126.969 87.2818 127.263 86.7637 127.593 86.2682L148.981 55.6959C149.215 55.3921 149.528 55.1597 149.887 55.0252C150.458 54.7966 151.054 54.6368 151.663 54.5492C152.626 54.4032 153.597 54.3093 154.571 54.2679C155.738 54.215 157.155 54.1873 158.822 54.1849C160.629 54.1849 162.172 54.221 163.452 54.2931C164.479 54.3332 165.502 54.4477 166.512 54.6357C167.101 54.7325 167.668 54.9301 168.19 55.2199C168.343 55.2973 168.472 55.4139 168.565 55.5578C168.657 55.7016 168.71 55.8676 168.717 56.0385V89.6291H174.852C175.418 89.6291 175.909 89.9897 176.317 90.6857C176.724 91.3816 176.93 92.5608 176.93 94.2016C176.93 95.6657 176.746 96.7799 176.371 97.5444C175.995 98.3089 175.494 98.6876 174.852 98.6876H168.72V108.785L168.399 109.535C168.08 109.805 167.698 109.991 167.288 110.076C166.606 110.244 165.91 110.352 165.209 110.4C164.358 110.472 163.259 110.508 161.915 110.508C160.634 110.508 159.562 110.472 158.692 110.4C157.992 110.356 157.297 110.247 156.617 110.076C156.215 109.993 155.842 109.806 155.535 109.535L155.239 108.785V98.6876H128.896C128.45 98.6934 128.005 98.6425 127.571 98.5361C127.171 98.4284 126.821 98.1833 126.583 97.8437C126.272 97.3783 126.072 96.8478 125.998 96.2931C125.858 95.4011 125.795 94.4986 125.81 93.5958C125.832 92.6834 125.861 91.8829 125.911 91.2086ZM73.5322 103.065C73.6251 102.436 73.8214 101.827 74.1132 101.262C74.4125 100.704 74.7758 100.182 75.1958 99.7081C75.7348 99.1153 76.3149 98.561 76.9315 98.0493L88.84 87.6962C90.8835 86.0034 92.8045 84.1682 94.5885 82.2042C95.8536 80.7946 96.9923 79.2766 97.9914 77.6677C98.7229 76.4928 99.2876 75.2222 99.6695 73.8922C99.9585 72.8243 100.11 71.724 100.121 70.6178C100.126 69.6894 99.9359 68.7701 99.5612 67.9205C99.1838 67.0657 98.619 66.3065 97.9085 65.6992C97.1063 65.0237 96.176 64.5171 95.1731 64.2098C93.913 63.8261 92.6001 63.6436 91.283 63.6689C89.4103 63.6445 87.5423 63.8627 85.7257 64.318C84.2749 64.6966 82.853 65.1786 81.4712 65.7605C80.2442 66.2942 79.2266 66.7846 78.4074 67.2281C77.832 67.597 77.1783 67.8267 76.4985 67.8989C76.2008 67.9059 75.909 67.8147 75.6685 67.6392C75.4024 67.4122 75.208 67.1128 75.1091 66.7774C74.9387 66.2511 74.8238 65.7084 74.7663 65.1582C74.6686 64.3349 74.6228 63.5063 74.6292 62.6773C74.6251 62.1233 74.6516 61.5695 74.7086 61.0185C74.7557 60.624 74.8366 60.2343 74.9504 59.8537C75.0433 59.5441 75.1886 59.2526 75.3798 58.9918C75.6488 58.6567 75.962 58.3595 76.3108 58.1084C77.0747 57.5819 77.8939 57.1405 78.7539 56.7921C80.1796 56.1762 81.6457 55.6582 83.142 55.2415C85.0328 54.7045 86.9535 54.2783 88.8941 53.965C91.0669 53.6156 93.2647 53.4443 95.4654 53.4529C98.6269 53.3987 101.782 53.7625 104.848 54.5347C107.241 55.1401 109.502 56.179 111.52 57.5999C113.205 58.803 114.568 60.4018 115.49 62.2553C116.364 64.0639 116.811 66.049 116.796 68.0575C116.795 69.8583 116.578 71.6525 116.15 73.4017C115.604 75.4352 114.71 77.359 113.509 79.0885C111.827 81.5063 109.921 83.7593 107.814 85.8175C104.721 88.8437 101.469 91.7026 98.0708 94.3819L90.0416 101.064H117.175C117.52 101.062 117.86 101.151 118.16 101.32C118.481 101.515 118.746 101.789 118.929 102.117C119.171 102.566 119.334 103.054 119.409 103.559C119.522 104.251 119.575 104.95 119.567 105.651C119.578 106.365 119.533 107.079 119.434 107.786C119.373 108.284 119.238 108.77 119.033 109.228C118.896 109.559 118.655 109.837 118.348 110.021C118.056 110.185 117.726 110.268 117.391 110.263H77.7831C77.1031 110.271 76.424 110.213 75.7551 110.09C75.2175 110.015 74.7184 109.769 74.3316 109.388C73.9449 109.008 73.6912 108.513 73.608 107.977C73.4244 107.17 73.3419 106.344 73.3626 105.517C73.3571 104.697 73.4138 103.877 73.5322 103.065Z" fill="white"/>
</g>
<defs>
<clipPath id="clip0_505_1286">
<rect width="202" height="210" fill="white" transform="translate(0.962891 0.133789)"/>
</clipPath>
</defs>
</svg>
