<svg width="101" height="101" viewBox="0 0 101 101" fill="none" xmlns="http://www.w3.org/2000/svg">
<path d="M90.0827 31.6797C90.0827 38.5832 72.3606 44.1797 50.4993 44.1797C28.6381 44.1797 10.916 38.5832 10.916 31.6797M90.0827 31.6797C90.0827 24.7761 72.3606 19.1797 50.4993 19.1797C28.6381 19.1797 10.916 24.7761 10.916 31.6797M90.0827 31.6797V44.1797M10.916 31.6797V44.1797M90.0827 44.1797C90.0827 51.0834 72.3606 56.6797 50.4993 56.6797C28.6381 56.6797 10.916 51.0834 10.916 44.1797M90.0827 44.1797V56.6797M10.916 44.1797V56.6797M90.0827 56.6797C90.0827 63.5834 72.3606 69.1797 50.4993 69.1797C28.6381 69.1797 10.916 63.5834 10.916 56.6797M90.0827 56.6797V69.1797C90.0827 76.0834 72.3606 81.6797 50.4993 81.6797C28.6381 81.6797 10.916 76.0834 10.916 69.1797V56.6797" stroke="black" stroke-width="5" stroke-linecap="round"/>
</svg>
