<svg width="268" height="132" viewBox="0 0 268 132" fill="none" xmlns="http://www.w3.org/2000/svg">
<path style="mix-blend-mode:multiply" d="M134.367 131.151C208.097 131.151 267.867 126.075 267.867 119.812C267.867 113.549 208.097 108.472 134.367 108.472C60.6372 108.472 0.867188 113.549 0.867188 119.812C0.867188 126.075 60.6372 131.151 134.367 131.151Z" fill="black"/>
<path d="M39.9858 120.068H102.187L88.4336 90.0891H53.5079L39.9858 120.068Z" fill="white"/>
<path d="M103.651 120.068H165.852L152.099 90.0891H117.173L103.651 120.068Z" fill="white"/>
<path d="M166.547 120.068H228.748L214.986 90.0891H180.061L166.547 120.068Z" fill="white"/>
<path d="M58.1807 90.0893H107.836L96.8528 60.5901H68.9735L58.1807 90.0893Z" fill="white"/>
<path d="M108.382 90.0893H158.037L147.054 60.5901H119.175L108.382 90.0893Z" fill="white"/>
<path d="M82.0986 60.4245H131.754L120.771 30.9253H92.8914L82.0986 60.4245Z" fill="white"/>
<path d="M109.267 31.1073H158.914L147.939 0.151367H120.059L109.267 31.1073Z" fill="white"/>
<path d="M132.308 60.4245H181.955L170.972 30.9253H143.092L132.308 60.4245Z" fill="white"/>
<path d="M158.591 90.0893H208.238L197.255 60.5901H169.375L158.591 90.0893Z" fill="white"/>
</svg>
