<svg width="203" height="211" viewBox="0 0 203 211" fill="none" xmlns="http://www.w3.org/2000/svg">
<g clip-path="url(#clip0_530_2261)">
<path d="M145.037 197.339C150.186 193.156 151.471 185.54 149.176 177.592C147.813 173.026 145.551 168.779 142.521 165.1C141.894 164.322 141.233 163.582 140.562 162.876C134.546 156.54 127.08 153.027 120.574 153.027C117.138 153.027 113.977 154.008 111.437 156.067L110.314 156.972C119.148 158.191 133.081 169.666 139.598 181.4L139.667 181.526C143.185 187.913 144.319 193.841 143.037 198.954L145.037 197.339Z" fill="black"/>
<path d="M132.762 204.67L132.729 204.7L132.762 204.677V204.67Z" fill="#616E7D"/>
<path d="M155.257 89.903V64.2422H155.152L137.012 89.903H155.257Z" fill="white"/>
<path d="M53.5437 84.9411C60.8764 78.973 60.4001 66.0344 52.7895 55.0575C52.2157 54.2353 51.6167 53.4348 50.9852 52.6378C45.8537 46.3236 39.3041 42.3064 33.1333 41.0118C31.7699 40.7022 30.3778 40.5355 28.9798 40.5142C26.3536 40.4768 23.7658 41.1469 21.4883 42.4543C24.202 42.9303 27.0059 44.3691 29.7448 46.3596C35.0928 50.247 40.1737 56.3016 43.7643 61.8081C46.1893 65.5332 53.1756 77.1592 52.2157 86.0157L53.5437 84.9411Z" fill="black"/>
<path d="M135.138 205.424C135.546 205.096 135.932 204.746 136.303 204.389L136.343 204.328C136.822 204.018 137.284 203.685 137.729 203.329C138.09 203.029 138.451 202.705 138.783 202.38C142.525 196.473 141.027 189.15 137.068 182.233C130.212 170.232 115.965 159.461 108.831 159.461C107.85 159.412 106.882 159.698 106.085 160.272L103.703 162.205L102.321 163.337L100.611 164.729C99.2702 165.869 97.5845 166.525 95.8255 166.59C95.236 166.622 94.6469 166.519 94.103 166.29C93.5591 166.061 93.0745 165.711 92.686 165.267L88.5649 160.218C85.3677 153.345 78.2046 142.602 68.9773 131.254C59.75 119.906 50.6635 110.717 44.583 106.184L40.5594 101.248C38.9608 99.2825 39.9207 95.8675 42.6957 93.6137L43.2117 93.1882L44.4098 92.2145L46.6074 90.4115L48.6499 88.7635L48.9133 88.5363C52.973 79.3589 40.3284 57.3798 28.4561 48.5846C25.3202 46.2659 22.2456 44.8487 19.5391 44.8487C18.9503 44.8459 18.3635 44.9174 17.7926 45.0615L15.7429 46.7311L14.949 47.3802L12.4229 49.4176L12.0621 49.7025L10.698 50.8132L9.83554 51.5163L7.94463 53.0561L8.03846 53.1715C-8.36996 70.1417 4.50199 115.452 37.9467 156.533C65.0114 189.773 97.489 210.4 119.502 210.4C124.709 210.4 129.332 209.239 133.153 206.819L133.38 206.657L133.409 206.632L133.38 206.664C133.99 206.285 134.576 205.871 135.138 205.424Z" fill="black"/>
<path d="M132.782 204.648L132.76 204.671V204.678L132.782 204.648Z" fill="white"/>
<path d="M97.9919 77.9379C96.9924 79.5442 95.8538 81.0598 94.589 82.4671C92.8049 84.4311 90.884 86.2664 88.8405 87.9592L76.932 98.3122C76.3154 98.824 75.7353 99.3782 75.1962 99.971C74.7763 100.445 74.413 100.967 74.1137 101.525C73.8219 102.09 73.6256 102.699 73.5327 103.328C73.4174 104.136 73.3631 104.95 73.3703 105.766C73.3497 106.593 73.4321 107.419 73.6157 108.225C73.6989 108.761 73.9526 109.256 74.3394 109.637C74.7261 110.018 75.2252 110.264 75.7628 110.338C76.4317 110.461 77.1108 110.519 77.7909 110.512H117.377C117.712 110.516 118.042 110.433 118.334 110.27C118.641 110.086 118.882 109.807 119.019 109.477C119.224 109.019 119.359 108.532 119.42 108.034C119.519 107.327 119.564 106.613 119.553 105.899C119.561 105.199 119.508 104.499 119.395 103.808C119.32 103.303 119.158 102.815 118.915 102.365C118.732 102.038 118.467 101.763 118.146 101.569C117.846 101.399 117.506 101.311 117.161 101.312H90.0277L98.0569 94.6304C101.455 91.9511 104.707 89.0922 107.8 86.066C109.911 84.0153 111.822 81.7695 113.509 79.3587C114.711 77.6292 115.604 75.7053 116.151 73.6719C116.576 71.9223 116.791 70.1282 116.789 68.3277C116.804 66.3192 116.357 64.3341 115.483 62.5255C114.562 60.6719 113.199 59.0732 111.513 57.87C109.496 56.4492 107.234 55.4103 104.841 54.8049C101.775 54.0326 98.6202 53.6688 95.4587 53.7231C93.2664 53.7159 91.0771 53.8871 88.9126 54.2351C86.972 54.5484 85.0514 54.9747 83.1605 55.5117C81.6642 55.9283 80.1981 56.4464 78.7724 57.0623C77.9124 57.4107 77.0932 57.852 76.3294 58.3785C75.9805 58.6297 75.6674 58.9269 75.3983 59.262C75.2071 59.5227 75.0619 59.8142 74.9689 60.1238C74.8551 60.5045 74.7742 60.8942 74.7271 61.2886C74.6701 61.8397 74.6436 62.3934 74.6477 62.9474C74.6414 63.7765 74.6872 64.6051 74.7849 65.4284C74.8423 65.9786 74.9572 66.5212 75.1277 67.0475C75.2266 67.3829 75.4209 67.6824 75.687 67.9094C75.9276 68.0848 76.2193 68.1761 76.517 68.169C77.1969 68.0968 77.8505 67.8672 78.426 67.4983C79.2451 67.0547 80.2628 66.5643 81.4897 66.0306C82.8716 65.4488 84.2934 64.9667 85.7443 64.5882C87.5609 64.1328 89.4288 63.9146 91.3016 63.9391C92.6187 63.9137 93.9315 64.0963 95.1916 64.48C96.1945 64.7873 97.1249 65.2938 97.927 65.9693C98.6375 66.5766 99.2023 67.3358 99.5797 68.1906C99.9544 69.0403 100.145 69.9595 100.139 70.888C100.129 71.9942 99.9771 73.0945 99.688 74.1623C99.3005 75.4933 98.7297 76.764 97.9919 77.9379Z" fill="#F7BE00"/>
<path d="M155.548 109.805C155.856 110.076 156.229 110.263 156.631 110.346C157.311 110.517 158.006 110.626 158.706 110.67C159.576 110.742 160.647 110.778 161.929 110.778C163.276 110.778 164.374 110.742 165.223 110.67C165.924 110.622 166.62 110.514 167.302 110.346C167.712 110.261 168.094 110.075 168.413 109.805L168.734 109.055V98.9577H174.869C175.511 98.9577 176.017 98.5719 176.388 97.8146C176.76 97.0573 176.948 95.9358 176.948 94.4717C176.948 92.831 176.742 91.6626 176.334 90.9558C175.926 90.249 175.403 89.8992 174.855 89.8992H168.72V56.3086C168.713 56.1377 168.66 55.9718 168.568 55.8279C168.475 55.684 168.346 55.5674 168.193 55.49C167.672 55.2003 167.104 55.0026 166.515 54.9058C165.505 54.7179 164.482 54.6034 163.455 54.5633C162.178 54.4911 160.634 54.4551 158.825 54.4551C157.158 54.4551 155.741 54.4827 154.574 54.538C153.6 54.5795 152.629 54.6734 151.666 54.8193C151.057 54.9069 150.461 55.0667 149.89 55.2953C149.531 55.4299 149.218 55.6622 148.984 55.966L127.582 86.5384C127.252 87.0338 126.958 87.552 126.701 88.089C126.466 88.5871 126.287 89.1095 126.167 89.6468C126.037 90.2507 125.948 90.8628 125.9 91.4787C125.85 92.153 125.821 92.9536 125.821 93.8695C125.805 94.7724 125.868 95.6748 126.008 96.5669C126.082 97.1216 126.282 97.6521 126.593 98.1175C126.831 98.457 127.181 98.7021 127.582 98.8099C128.015 98.9163 128.46 98.9671 128.906 98.9613H155.249V109.058L155.548 109.805ZM137.007 89.8992L155.148 64.242H155.253V89.8992H137.007Z" fill="#F7BE00"/>
<path d="M55.1823 86.9597L49.7369 91.3663L49.1631 91.6908L48.2574 92.412L46.0489 94.2151L44.8653 95.1779L44.3384 95.6034C42.5341 97.0783 42.0758 98.9787 42.5774 99.5701L46.3917 104.258C52.8872 109.17 62.064 118.599 70.9881 129.573C79.9122 140.546 87.3207 151.458 90.785 158.782L94.7004 163.592C94.9746 163.924 95.5665 163.953 95.8118 163.953C96.9745 163.885 98.0821 163.435 98.9622 162.673L100.676 161.285L102.066 160.149L104.48 158.187C104.76 157.97 105.058 157.777 105.371 157.61L109.799 154.004C112.718 151.638 116.442 150.398 120.574 150.398C127.932 150.398 136.091 154.365 142.446 161.057C143.233 161.883 143.918 162.662 144.532 163.427C147.688 167.259 150.069 171.668 151.543 176.408C182.025 161.151 202.959 129.674 202.959 93.2883C202.959 41.9702 161.33 0.363287 109.968 0.363287C95.2901 0.358319 80.8198 3.83165 67.7451 10.4982C54.6704 17.1648 43.3641 26.8346 34.7539 38.7139C41.3 40.4088 47.9254 44.783 52.9919 50.9999C53.6595 51.8293 54.3126 52.6983 54.9225 53.5818C63.3992 65.8317 63.5146 80.1838 55.1823 86.9597ZM125.911 91.4781C125.959 90.8622 126.048 90.2501 126.178 89.6462C126.299 89.1089 126.478 88.5864 126.712 88.0884C126.969 87.5514 127.263 87.0332 127.593 86.5378L148.981 55.9654C149.215 55.6616 149.528 55.4293 149.887 55.2947C150.458 55.0661 151.054 54.9063 151.663 54.8187C152.626 54.6728 153.597 54.5789 154.571 54.5374C155.738 54.4845 157.155 54.4569 158.822 54.4545C160.629 54.4545 162.172 54.4905 163.452 54.5627C164.479 54.6028 165.502 54.7173 166.512 54.9052C167.101 55.002 167.668 55.1997 168.19 55.4894C168.343 55.5668 168.472 55.6834 168.565 55.8273C168.657 55.9712 168.71 56.1371 168.717 56.308V89.8986H174.852C175.418 89.8986 175.909 90.2592 176.317 90.9552C176.724 91.6512 176.93 92.8304 176.93 94.4711C176.93 95.9352 176.746 97.0495 176.371 97.814C175.995 98.5785 175.494 98.9571 174.852 98.9571H168.72V109.054L168.399 109.804C168.08 110.075 167.698 110.261 167.288 110.345C166.606 110.513 165.91 110.622 165.209 110.67C164.358 110.742 163.259 110.778 161.915 110.778C160.634 110.778 159.562 110.742 158.692 110.67C157.992 110.625 157.297 110.516 156.617 110.345C156.215 110.262 155.842 110.076 155.535 109.804L155.239 109.054V98.9571H128.896C128.45 98.9629 128.005 98.912 127.571 98.8056C127.171 98.6979 126.821 98.4528 126.583 98.1133C126.272 97.6479 126.072 97.1174 125.998 96.5626C125.858 95.6706 125.795 94.7681 125.81 93.8653C125.832 92.953 125.861 92.1524 125.911 91.4781ZM73.5322 103.335C73.6251 102.706 73.8214 102.097 74.1132 101.532C74.4125 100.974 74.7758 100.452 75.1958 99.9776C75.7348 99.3848 76.3149 98.8305 76.9315 98.3188L88.84 87.9658C90.8835 86.273 92.8045 84.4377 94.5885 82.4737C95.8536 81.0641 96.9923 79.5461 97.9914 77.9373C98.7229 76.7624 99.2876 75.4917 99.6695 74.1617C99.9585 73.0939 100.11 71.9935 100.121 70.8874C100.126 69.9589 99.9359 69.0397 99.5612 68.19C99.1838 67.3352 98.619 66.576 97.9085 65.9687C97.1063 65.2932 96.176 64.7867 95.1731 64.4794C93.913 64.0957 92.6001 63.9131 91.283 63.9385C89.4103 63.914 87.5423 64.1322 85.7257 64.5876C84.2749 64.9661 82.853 65.4482 81.4712 66.03C80.2442 66.5637 79.2266 67.0541 78.4074 67.4977C77.832 67.8666 77.1783 68.0962 76.4985 68.1684C76.2008 68.1755 75.909 68.0842 75.6685 67.9088C75.4024 67.6817 75.208 67.3823 75.1091 67.0469C74.9387 66.5206 74.8238 65.978 74.7663 65.4278C74.6686 64.6045 74.6228 63.7758 74.6292 62.9468C74.6251 62.3928 74.6516 61.839 74.7086 61.288C74.7557 60.8935 74.8366 60.5038 74.9504 60.1232C75.0433 59.8136 75.1886 59.5221 75.3798 59.2614C75.6488 58.9262 75.962 58.629 76.3108 58.3779C77.0747 57.8514 77.8939 57.41 78.7539 57.0617C80.1796 56.4458 81.6457 55.9277 83.142 55.5111C85.0328 54.9741 86.9535 54.5478 88.8941 54.2345C91.0669 53.8851 93.2647 53.7139 95.4654 53.7224C98.6269 53.6682 101.782 54.032 104.848 54.8043C107.241 55.4096 109.502 56.4486 111.52 57.8694C113.205 59.0726 114.568 60.6713 115.49 62.5249C116.364 64.3335 116.811 66.3186 116.796 68.3271C116.795 70.1278 116.578 71.922 116.15 73.6713C115.604 75.7047 114.71 77.6285 113.509 79.358C111.827 81.7758 109.921 84.0289 107.814 86.087C104.721 89.1133 101.469 91.9721 98.0708 94.6514L90.0416 101.334H117.175C117.52 101.332 117.86 101.42 118.16 101.59C118.481 101.784 118.746 102.059 118.929 102.386C119.171 102.836 119.334 103.324 119.409 103.829C119.522 104.52 119.575 105.22 119.567 105.92C119.578 106.634 119.533 107.348 119.434 108.055C119.373 108.553 119.238 109.04 119.033 109.498C118.896 109.829 118.655 110.107 118.348 110.291C118.056 110.454 117.726 110.537 117.391 110.533H77.7831C77.1031 110.54 76.424 110.482 75.7551 110.36C75.2175 110.285 74.7184 110.039 74.3316 109.658C73.9449 109.277 73.6912 108.782 73.608 108.246C73.4244 107.44 73.3419 106.614 73.3626 105.787C73.3571 104.967 73.4138 104.147 73.5322 103.335Z" fill="white"/>
</g>
<defs>
<clipPath id="clip0_530_2261">
<rect width="202" height="210" fill="white" transform="translate(0.962891 0.40332)"/>
</clipPath>
</defs>
</svg>
