<svg width="127" height="127" viewBox="0 0 127 127" fill="none" xmlns="http://www.w3.org/2000/svg">
<path d="M80.8595 53.8184L63.1523 75.8752C61.1956 78.3128 57.5563 78.5112 55.3461 76.301L48.0312 68.9861" stroke="#F7BE00" stroke-width="5" stroke-linecap="round"/>
<path d="M69.3371 23.2828C70.427 22.5813 70.972 22.2306 71.414 22.002C77 19.114 83.8544 21.75 86.0657 27.6365C86.2406 28.1023 86.4101 28.7278 86.7493 29.9788C86.9057 30.5564 86.9839 30.8453 87.0716 31.111C88.1311 34.3301 90.6789 36.8399 93.9134 37.8507C94.1806 37.9341 94.4704 38.008 95.0506 38.1559L95.8381 38.3565C98.5628 39.0511 99.9252 39.3984 100.92 39.8919C105.443 42.1347 107.729 47.2786 106.364 52.1387C106.063 53.208 105.408 54.4521 104.098 56.94L103.72 57.6593C103.441 58.1885 103.301 58.4536 103.184 58.7077C101.767 61.7858 101.923 65.3589 103.603 68.3026C103.742 68.5452 103.904 68.7972 104.228 69.3001C104.929 70.39 105.28 70.935 105.509 71.377C108.397 76.963 105.761 83.8174 99.8738 86.0287C99.4081 86.2035 98.7828 86.3731 97.5317 86.7123C96.9542 86.8687 96.6649 86.9469 96.3993 87.0346C93.1805 88.0941 90.6705 90.6419 89.6599 93.8764C89.5764 94.1436 89.5024 94.4334 89.3548 95.0136L89.1538 95.8005C88.4592 98.5258 88.1122 99.8882 87.6187 100.883C85.3759 105.406 80.2319 107.692 75.372 106.327C74.3026 106.026 73.0583 105.371 70.5703 104.061L69.8516 103.682C69.3219 103.404 69.0573 103.264 68.8032 103.147C65.7246 101.73 62.1514 101.886 59.2083 103.566C58.9652 103.705 58.7137 103.867 58.2103 104.191C57.1204 104.892 56.5754 105.243 56.1334 105.472C50.5476 108.36 43.6932 105.724 41.4817 99.8367C41.3068 99.3711 41.1373 98.7458 40.7982 97.4947C40.6416 96.9167 40.5634 96.6279 40.4759 96.3623C39.4165 93.1435 36.8686 90.6335 33.6339 89.6229C33.3669 89.5394 33.0769 89.4654 32.497 89.3173L31.7097 89.1168C28.9849 88.4222 27.6225 88.0752 26.6274 87.5817C22.1047 85.3389 19.8183 80.1949 21.1837 75.3345C21.4841 74.2656 22.1392 73.0213 23.4493 70.5333L23.8279 69.8141C24.1067 69.2849 24.2461 69.0198 24.3631 68.7657C25.7801 65.6876 25.6242 62.1144 23.9444 59.1708C23.8057 58.9282 23.6438 58.6762 23.3199 58.1733C22.6184 57.0834 22.2676 56.5384 22.0391 56.0964C19.1511 50.5105 21.7871 43.6561 27.6736 41.4447C28.1394 41.2697 28.7649 41.1002 30.0159 40.7611C30.5935 40.6046 30.8823 40.5263 31.1481 40.4388C34.3671 39.3794 36.877 36.8314 37.8878 33.5968C37.9712 33.3298 38.0451 33.0398 38.193 32.4599L38.3936 31.6726C39.0883 28.9478 39.4355 27.5853 39.929 26.5903C42.1718 22.0676 47.3157 19.7812 52.1758 21.1466C53.2451 21.447 54.4891 22.1021 56.977 23.4122L57.6963 23.7908C58.2255 24.0696 58.4906 24.209 58.7447 24.3259C61.8228 25.743 65.3959 25.587 68.3396 23.9073C68.5822 23.7686 68.8342 23.6067 69.3371 23.2828Z" stroke="#F7BE00" stroke-width="5" stroke-linecap="round"/>
</svg>
