<svg width="18" height="19" viewBox="0 0 18 19" fill="none" xmlns="http://www.w3.org/2000/svg">
<path d="M2.24414 9.88986C2.24414 12.937 4.27315 15.5094 7.04447 16.3904C7.48985 16.532 7.91452 16.1764 7.91452 15.709V12.1643C7.91452 11.9572 7.74667 11.7893 7.53952 11.7893H6.60205C6.39494 11.7893 6.22705 11.6215 6.22705 11.4143V10.2648C6.22705 10.0577 6.39494 9.88978 6.60205 9.88978H7.53952C7.74667 9.88978 7.91452 9.72193 7.91452 9.51478V8.39736C7.91452 6.70137 8.99452 5.75163 10.547 5.75163C10.915 5.75163 11.324 5.79278 11.7101 5.84303C11.8951 5.8671 12.032 6.02579 12.032 6.21231V7.24221C12.032 7.44931 11.8642 7.61721 11.657 7.61721H11.1545C10.3445 7.61721 10.142 8.02424 10.142 8.56693V9.51478C10.142 9.72193 10.3099 9.88978 10.517 9.88978H11.491C11.7218 9.88978 11.8978 10.0962 11.8614 10.324L11.6776 11.4736C11.6485 11.6554 11.4915 11.7893 11.3072 11.7893H10.5153C10.3089 11.7893 10.1413 11.9561 10.1403 12.1625L10.1234 15.7047C10.1212 16.1735 10.5467 16.5315 10.9933 16.3888C13.755 15.5062 15.7441 12.9352 15.7441 9.88986C15.7441 6.15872 12.7066 3.10596 8.99414 3.10596C5.28164 3.10596 2.24414 6.15872 2.24414 9.88986Z" stroke="#DCB300" stroke-linecap="round"/>
</svg>
