<svg width="18" height="19" viewBox="0 0 18 19" fill="none" xmlns="http://www.w3.org/2000/svg">
<path d="M14.2441 13.7853V7.65665C14.2441 7.25883 14.0787 6.88643 13.7709 6.63432C12.9622 5.9718 11.3167 4.655 10.0073 3.48458C9.42291 2.96222 8.53461 2.92922 7.93949 3.43931L4.26796 6.58635C3.93549 6.87132 3.74414 7.28735 3.74414 7.72523V13.7853C3.74414 14.6138 4.41571 15.2853 5.24414 15.2853H5.61914C6.44757 15.2853 7.11914 14.6138 7.11914 13.7853V12.2853C7.11914 11.4569 7.79069 10.7853 8.61914 10.7853H9.36914C10.1976 10.7853 10.8691 11.4569 10.8691 12.2853V13.7853C10.8691 14.6138 11.5407 15.2853 12.3691 15.2853H12.7441C13.5726 15.2853 14.2441 14.6138 14.2441 13.7853Z" stroke="#DCB300" stroke-linecap="round"/>
</svg>
