<svg width="87" height="62" viewBox="0 0 87 62" fill="none" xmlns="http://www.w3.org/2000/svg">
<g clip-path="url(#clip0_589_25)">
<path d="M4.94397 41.9204C4.97985 41.9884 5.03607 42.0435 5.10478 42.078C5.17349 42.1125 5.25126 42.1247 5.32722 42.1128L9.77533 41.4234C11.1738 43.0326 12.8252 44.4029 14.6646 45.4805L14.8076 49.9775C14.8099 50.0544 14.8363 50.1287 14.8829 50.1899C14.9296 50.2511 14.9943 50.2961 15.0679 50.3186L20.2267 51.9127C20.3003 51.9355 20.3791 51.9346 20.4521 51.9104C20.5252 51.8862 20.5889 51.8397 20.6343 51.7776L23.2905 48.1467C25.4169 48.294 27.553 48.0937 29.6149 47.5538L32.8996 50.629C32.9561 50.6824 33.0279 50.7167 33.1049 50.727C33.1819 50.7373 33.2602 50.723 33.3286 50.6862L38.1028 48.1645C38.1708 48.1286 38.2259 48.0724 38.2605 48.0037C38.2951 47.935 38.3074 47.8572 38.2959 47.7812L37.6059 43.3322C39.215 41.9334 40.5853 40.2817 41.6629 38.4418L46.1582 38.2988C46.2352 38.2964 46.3095 38.2701 46.3707 38.2234C46.432 38.1767 46.4772 38.1121 46.4999 38.0385L48.093 32.8785C48.1157 32.805 48.1149 32.7262 48.0907 32.6531C48.0664 32.58 48.02 32.5163 47.9579 32.4709L44.3277 29.814C44.4753 27.6873 44.2751 25.5507 43.735 23.4884L46.8096 20.2029C46.863 20.1464 46.8972 20.0746 46.9075 19.9976C46.9178 19.9205 46.9035 19.8422 46.8667 19.7738L44.3477 15.0022C44.3118 14.9342 44.2556 14.8791 44.1869 14.8445C44.1183 14.8099 44.0405 14.7975 43.9645 14.8091L39.5164 15.5028C38.1184 13.8932 36.4672 12.5225 34.6278 11.4449L34.4813 6.94866C34.4789 6.87166 34.4525 6.79733 34.4059 6.73604C34.3592 6.67475 34.2946 6.62957 34.221 6.60681L29.0621 5.01341C28.9886 4.99081 28.9098 4.99167 28.8368 5.0159C28.7638 5.04012 28.7001 5.08649 28.6546 5.14858L25.999 8.77949C23.8725 8.63184 21.7361 8.8321 19.674 9.37237L16.3899 6.29714C16.3335 6.24382 16.2616 6.2096 16.1847 6.19933C16.1077 6.18907 16.0294 6.20327 15.9609 6.23992L11.1868 8.76161C11.1188 8.7975 11.0637 8.85373 11.0292 8.92246C10.9947 8.99118 10.9826 9.06897 10.9944 9.14494L11.6837 13.594C10.0747 14.9923 8.70458 16.6439 7.62743 18.4836L3.13141 18.6266C3.05449 18.629 2.98023 18.6553 2.91906 18.702C2.85789 18.7487 2.81287 18.8134 2.79035 18.887L1.19657 24.0462C1.17392 24.1199 1.17476 24.1988 1.19897 24.272C1.22319 24.3451 1.26958 24.409 1.33171 24.4546L4.96185 27.1107C4.81459 29.2377 5.0148 31.3745 5.5546 33.4371L2.48003 36.7218C2.42672 36.7783 2.39251 36.8502 2.38224 36.9272C2.37198 37.0042 2.38618 37.0825 2.42283 37.1509L4.94397 41.9204Z" fill="#F7BE00"/>
<path d="M28.1518 32.3477C27.2527 33.1589 26.1002 33.6331 24.8906 33.6895C23.6811 33.746 22.4894 33.3811 21.5187 32.6572C20.5479 31.9332 19.8582 30.895 19.5671 29.7194C19.276 28.5439 19.4014 27.3037 19.9221 26.2102C20.4427 25.1168 21.3263 24.2378 22.4223 23.723C23.5184 23.2082 24.759 23.0895 25.9327 23.387C27.1064 23.6846 28.1406 24.3801 28.8591 25.355C29.5776 26.3299 29.9359 27.5238 29.8729 28.7332C29.8391 29.4205 29.6693 30.0941 29.3732 30.7152C29.0772 31.3363 28.6608 31.8924 28.1483 32.3513L28.1518 32.3477ZM21.7289 25.2289C20.8725 26.0027 20.3582 27.0848 20.299 28.2377C20.2399 29.3905 20.6407 30.5196 21.4134 31.377C22.1861 32.2344 23.2675 32.7499 24.42 32.8103C25.5725 32.8707 26.7018 32.471 27.5598 31.699C28.4036 30.9221 28.9069 29.8435 28.9603 28.6976C29.0138 27.5517 28.613 26.4309 27.8452 25.5788C27.0773 24.7267 26.0043 24.212 24.8593 24.1464C23.7142 24.0809 22.5889 24.4699 21.7289 25.2289Z" fill="black"/>
<path d="M33.7788 38.3835C31.6835 40.2787 29.046 41.4676 26.2386 41.7825C23.4312 42.0975 20.5958 41.5224 18.1329 40.1385L18.5619 39.3719C19.3434 39.8102 20.169 40.1645 21.0251 40.4289C26.2354 42.038 31.7124 40.082 34.812 35.9519L34.8299 35.929C34.8355 35.9209 34.8414 35.913 34.8478 35.9054C36.0498 34.2893 36.8463 32.4082 37.1704 30.4202C37.4945 28.4322 37.3367 26.3954 36.7103 24.4811C36.0838 22.5668 35.0071 20.8309 33.5705 19.4193C32.1339 18.0077 30.3796 16.9617 28.4548 16.3692C21.8231 14.3202 14.7616 18.0505 12.7131 24.683C12.0398 26.8581 11.9696 29.1752 12.51 31.387L11.6555 31.5958C11.0767 29.2297 11.1509 26.7507 11.87 24.4234C14.0623 17.3275 21.6171 13.3383 28.7122 15.5281C31.0246 16.2364 33.1021 17.5579 34.7241 19.3521C35.4768 20.188 36.1229 21.114 36.6475 22.1091C38.045 24.7554 38.5212 27.7919 38.0009 30.739C37.4807 33.6862 35.9936 36.3759 33.7745 38.3835H33.7788Z" fill="black"/>
<path d="M51.2648 42.8786C51.2383 42.902 51.2197 42.9332 51.2118 42.9677C51.2038 43.0022 51.2069 43.0383 51.2205 43.071L52.0134 44.9891C51.4443 45.7906 51.0096 46.6795 50.7264 47.6209L48.7287 48.1759C48.6945 48.1853 48.6641 48.2053 48.6418 48.2328C48.6195 48.2604 48.6064 48.2942 48.6043 48.3296L48.452 50.8148C48.4499 50.8502 48.4589 50.8853 48.4777 50.9153C48.4966 50.9453 48.5243 50.9687 48.5571 50.9822L50.4719 51.7775C50.6376 52.7461 50.9597 53.6814 51.4257 54.5466L50.4047 56.3531C50.3873 56.384 50.38 56.4195 50.3837 56.4548C50.3874 56.49 50.402 56.5232 50.4254 56.5498L52.0742 58.4149C52.0978 58.4415 52.1291 58.46 52.1637 58.4679C52.1983 58.4759 52.2345 58.4729 52.2673 58.4593L54.1849 57.6662C54.9861 58.2356 55.8749 58.6704 56.8162 58.9535L57.3711 60.9517C57.3805 60.9859 57.4004 61.0164 57.4279 61.0388C57.4555 61.0612 57.4893 61.0745 57.5248 61.0768L60.0087 61.2284C60.0442 61.2308 60.0794 61.222 60.1096 61.2033C60.1397 61.1845 60.1632 61.1568 60.1768 61.124L60.9712 59.2081C61.94 59.0428 62.8754 58.7206 63.7404 58.254L65.5465 59.2753C65.5774 59.2929 65.6129 59.3003 65.6482 59.2966C65.6835 59.2929 65.7167 59.2782 65.7432 59.2546L67.6072 57.6054C67.634 57.582 67.6528 57.5508 67.6609 57.5161C67.669 57.4814 67.666 57.4451 67.6523 57.4123L66.8593 55.4949C67.4281 54.6932 67.8628 53.8043 68.1463 52.8631L70.1441 52.3081C70.1782 52.2986 70.2085 52.2786 70.2308 52.2511C70.2531 52.2235 70.2663 52.1897 70.2685 52.1544L70.4208 49.6691C70.4231 49.6337 70.4142 49.5985 70.3955 49.5684C70.3768 49.5383 70.3491 49.5147 70.3164 49.5011L68.4009 48.7065C68.2355 47.7378 67.9133 46.8025 67.447 45.9374L68.4681 44.1309C68.4855 44.0999 68.4929 44.0642 68.4891 44.0289C68.4854 43.9935 68.4708 43.9602 68.4474 43.9335L66.7985 42.069C66.7749 42.0425 66.7437 42.024 66.7091 42.016C66.6745 42.0081 66.6383 42.0111 66.6055 42.0247L64.6885 42.8178C63.8871 42.2482 62.9981 41.8134 62.0565 41.5305L61.5017 39.5281C61.4923 39.4938 61.4724 39.4634 61.4449 39.4411C61.4173 39.4188 61.3834 39.4056 61.348 39.4036L58.864 39.2513C58.8285 39.2492 58.7933 39.2582 58.7632 39.277C58.7331 39.2958 58.7096 39.3236 58.696 39.3564L57.9016 41.2723C56.933 41.4375 55.9978 41.7597 55.1331 42.2264L53.3269 41.2051C53.2961 41.1874 53.2604 41.1798 53.225 41.1834C53.1896 41.187 53.1563 41.2016 53.1296 41.2252L51.2648 42.8786Z" fill="black"/>
<path d="M57.9996 52.3493C57.5118 52.0162 57.1546 51.5243 56.9888 50.9573C56.8231 50.3903 56.859 49.7834 57.0905 49.2399C57.322 48.6965 57.7347 48.2501 58.2584 47.9769C58.782 47.7037 59.3842 47.6206 59.9623 47.7418C60.5403 47.8629 61.0585 48.1808 61.4285 48.6412C61.7985 49.1017 61.9974 49.6762 61.9913 50.2669C61.9852 50.8576 61.7746 51.4279 61.3952 51.8806C61.0159 52.3334 60.4913 52.6405 59.9108 52.7498C59.5812 52.8129 59.2423 52.8099 58.9138 52.7409C58.5854 52.6719 58.2739 52.5383 57.9975 52.3479L57.9996 52.3493ZM60.4886 48.6976C60.0794 48.4183 59.5761 48.313 59.0894 48.4049C58.6026 48.4968 58.1723 48.7783 57.8931 49.1875C57.6138 49.5968 57.5086 50.1002 57.6004 50.587C57.6923 51.0739 57.9737 51.5043 58.3829 51.7836C58.5854 51.9236 58.8137 52.0222 59.0545 52.0737C59.2953 52.1251 59.5439 52.1284 59.786 52.0834C60.0281 52.0384 60.2589 51.9459 60.4651 51.8114C60.6714 51.6768 60.849 51.5027 60.9877 51.2992C61.1264 51.0957 61.2236 50.8668 61.2735 50.6256C61.3234 50.3845 61.3252 50.1358 61.2787 49.8939C61.2321 49.6521 61.1383 49.4218 61.0024 49.2164C60.8666 49.0109 60.6915 48.8344 60.4871 48.6969L60.4886 48.6976Z" fill="#F7BE00"/>
<path d="M55.9088 55.5279C54.8294 54.794 54.0022 53.7454 53.5398 52.5246C53.0774 51.3038 53.0023 49.9701 53.3247 48.7051C53.3369 48.6551 53.3505 48.6057 53.3641 48.5564L54.0219 48.7416C53.9135 49.1299 53.8464 49.5286 53.8217 49.931C53.7949 50.369 53.8189 50.8086 53.8932 51.2411C53.8932 51.2411 53.8932 51.2454 53.8932 51.2476C54.0554 52.1741 54.4449 53.0459 55.027 53.7847C55.609 54.5235 56.3653 55.1062 57.228 55.4807C57.6846 55.6786 58.1655 55.815 58.658 55.8862L58.706 55.8926L58.746 55.8983L58.8468 55.9105C58.9383 55.9205 59.0313 55.9284 59.1242 55.9341C59.8668 55.9816 60.6115 55.8814 61.3151 55.6392C62.0187 55.397 62.6673 55.0176 63.2234 54.523C63.5777 54.2099 63.8916 53.8539 64.1579 53.4632C64.8655 52.4202 65.2052 51.171 65.1233 49.9132C65.0414 48.6555 64.5427 47.4609 63.7059 46.5185C62.8692 45.576 61.7422 44.9395 60.5032 44.7095C59.2642 44.4795 57.9839 44.6693 56.8648 45.2487L56.5502 44.6416C57.5461 44.1246 58.6612 43.8809 59.7819 43.9352C60.9026 43.9895 61.9889 44.3399 62.9302 44.9508C63.8715 45.5617 64.6341 46.4111 65.1403 47.4127C65.6466 48.4142 65.8784 49.5321 65.8122 50.6524C65.746 51.7728 65.3841 52.8555 64.7634 53.7904C64.1427 54.7254 63.2854 55.4791 62.2787 55.9747C61.272 56.4704 60.152 56.6904 59.0327 56.6123C57.9134 56.5342 56.8347 56.1607 55.9067 55.53L55.9088 55.5279Z" fill="#F7BE00"/>
<path d="M83.5819 8.09897C83.557 8.05192 83.5181 8.0138 83.4705 7.98995C83.423 7.9661 83.3691 7.95771 83.3166 7.96595L80.242 8.45013C79.2725 7.33982 78.1285 6.39508 76.855 5.6531L76.7477 2.54426C76.7458 2.4911 76.7273 2.43989 76.6949 2.39772C76.6624 2.35555 76.6177 2.32454 76.5668 2.30897L72.9982 1.21548C72.9473 1.19976 72.8928 1.20034 72.8423 1.21714C72.7918 1.23394 72.7478 1.26611 72.7165 1.30916L70.8846 3.8237C69.4142 3.72528 67.9377 3.86732 66.513 4.24422L64.2371 2.1216C64.1982 2.08529 64.1489 2.06199 64.0961 2.05495C64.0433 2.0479 63.9896 2.05744 63.9425 2.08226L60.6456 3.83371C60.5987 3.85875 60.5608 3.89773 60.5371 3.94527C60.5134 3.99281 60.5051 4.04655 60.5133 4.09904L60.9974 7.17426C59.8869 8.14352 58.9421 9.28757 58.2002 10.5613L55.0928 10.67C55.0396 10.6717 54.9882 10.69 54.9459 10.7223C54.9036 10.7546 54.8725 10.7993 54.8568 10.8502L53.7636 14.4204C53.748 14.4713 53.7488 14.5258 53.7657 14.5763C53.7826 14.6268 53.8149 14.6708 53.8579 14.7021L56.3719 16.533C56.2735 18.0036 56.4156 19.4805 56.7924 20.9055L54.6695 23.1819C54.6332 23.2207 54.6099 23.2699 54.603 23.3226C54.5961 23.3754 54.6058 23.4289 54.6309 23.4758L56.3812 26.7735C56.4062 26.8205 56.4453 26.8586 56.493 26.8823C56.5407 26.906 56.5946 26.9142 56.6472 26.9058L59.7218 26.4223C60.6914 27.5322 61.8351 28.4769 63.1081 29.2193L63.2168 32.3282C63.2188 32.3813 63.2372 32.4325 63.2697 32.4747C63.3021 32.5169 63.3468 32.5479 63.3977 32.5635L66.9663 33.657C67.0172 33.6726 67.0717 33.6719 67.1221 33.6551C67.1726 33.6384 67.2166 33.6062 67.248 33.5633L69.0785 31.048C70.5488 31.1467 72.0254 31.0049 73.4501 30.6282L75.726 32.7508C75.765 32.7871 75.8143 32.8104 75.8671 32.8173C75.9199 32.8242 75.9735 32.8145 76.0206 32.7895L79.3168 31.0387C79.3639 31.0138 79.402 30.9747 79.4259 30.927C79.4497 30.8793 79.4581 30.8254 79.4498 30.7727L78.9657 27.6975C80.076 26.7282 81.0205 25.5842 81.7621 24.3104L84.8703 24.2017C84.9235 24.2 84.9749 24.1818 85.0172 24.1494C85.0595 24.1171 85.0906 24.0724 85.1063 24.0215L86.1995 20.4514C86.2148 20.4004 86.214 20.3459 86.1971 20.2955C86.1802 20.245 86.1481 20.201 86.1051 20.1696L83.5911 18.3388C83.6895 16.8681 83.5475 15.3912 83.1707 13.9662L85.2936 11.6898C85.3297 11.6509 85.3528 11.6017 85.3598 11.549C85.3667 11.4964 85.3571 11.4429 85.3322 11.3959L83.5819 8.09897Z" fill="#F7BE00"/>
<path d="M68.0819 20.5535C67.3208 20.0904 66.755 19.3651 66.4909 18.5141C66.2268 17.6631 66.2826 16.7449 66.6479 15.9321C67.0131 15.1194 67.6626 14.468 68.4742 14.1006C69.2858 13.7332 70.2037 13.6749 71.0552 13.9368C71.9067 14.1987 72.6333 14.7627 73.0983 15.5228C73.5633 16.2829 73.7347 17.1867 73.5802 18.0643C73.4258 18.9419 72.9562 19.7328 72.2596 20.2884C71.5631 20.844 70.6877 21.1259 69.7979 21.0813C69.1909 21.0511 68.601 20.8697 68.0819 20.5535ZM71.5354 14.89C71.1106 14.6317 70.6277 14.4841 70.1311 14.4609C69.4423 14.4266 68.7629 14.6321 68.2086 15.0426C67.6544 15.4532 67.2596 16.0432 67.0915 16.7122C66.9235 17.3812 66.9925 18.0878 67.287 18.7116C67.5814 19.3354 68.083 19.8378 68.7062 20.1332C69.3295 20.4285 70.0358 20.4986 70.7049 20.3314C71.374 20.1643 71.9645 19.7702 72.3757 19.2164C72.7869 18.6626 72.9934 17.9834 72.96 17.2944C72.9266 16.6054 72.6553 15.9493 72.1925 15.4379C72.0007 15.2248 71.7795 15.0403 71.5354 14.89Z" fill="black"/>
<path d="M65.0425 25.4515C61.4932 23.2795 59.7114 18.9013 60.9848 14.7433C61.2143 13.993 61.5376 13.2748 61.9472 12.6056C64.118 9.05552 68.496 7.27261 72.6538 8.54632C72.7253 8.56921 72.8033 8.59281 72.8769 8.61784C73.3754 8.78388 73.859 8.99153 74.3227 9.23861C74.3763 9.26721 74.4299 9.29582 74.4829 9.32586L74.1575 9.90943C73.6182 9.60855 73.0485 9.3657 72.4579 9.18497L72.4415 9.17997C70.6111 8.62429 68.6483 8.68981 66.859 9.36631C65.0697 10.0428 63.5544 11.2923 62.5492 12.9201C61.544 14.5479 61.1053 16.4625 61.3016 18.3657C61.4978 20.2689 62.318 22.0537 63.6342 23.442C64.9504 24.8303 66.6888 25.7441 68.5784 26.0411C70.4681 26.3381 72.4029 26.0016 74.0814 25.0839C75.7599 24.1663 77.0878 22.7191 77.8581 20.9678C78.6285 19.2166 78.798 17.2596 78.3404 15.4019L78.9882 15.241C79.4306 17.0391 79.3291 18.9282 78.6965 20.6685C78.0639 22.4088 76.9287 23.9219 75.4349 25.0159C73.9411 26.1098 72.1562 26.7354 70.3064 26.813C68.4567 26.8907 66.6255 26.4171 65.0454 25.4522L65.0425 25.4515Z" fill="black"/>
</g>
<defs>
<clipPath id="clip0_589_25">
<rect width="86" height="61" fill="white" transform="translate(0.5 0.738281)"/>
</clipPath>
</defs>
</svg>
