<svg width="18" height="19" viewBox="0 0 18 19" fill="none" xmlns="http://www.w3.org/2000/svg">
<path d="M2.24414 9.29782C2.24414 12.345 4.27315 14.9173 7.04447 15.7984C7.48985 15.94 7.91452 15.5843 7.91452 15.117V11.5723C7.91452 11.3652 7.74667 11.1973 7.53952 11.1973H6.60205C6.39494 11.1973 6.22705 11.0294 6.22705 10.8223V9.67274C6.22705 9.46567 6.39494 9.29774 6.60205 9.29774H7.53952C7.74667 9.29774 7.91452 9.12989 7.91452 8.92274V7.80532C7.91452 6.10933 8.99452 5.15959 10.547 5.15959C10.915 5.15959 11.324 5.20074 11.7101 5.25099C11.8951 5.27506 12.032 5.43375 12.032 5.62027V6.65017C12.032 6.85727 11.8642 7.02517 11.657 7.02517H11.1545C10.3445 7.02517 10.142 7.4322 10.142 7.97489V8.92274C10.142 9.12989 10.3099 9.29774 10.517 9.29774H11.491C11.7218 9.29774 11.8978 9.50414 11.8614 9.73199L11.6776 10.8815C11.6485 11.0634 11.4915 11.1973 11.3072 11.1973H10.5153C10.3089 11.1973 10.1413 11.3641 10.1403 11.5705L10.1234 15.1126C10.1212 15.5815 10.5467 15.9394 10.9933 15.7967C13.755 14.9141 15.7441 12.3431 15.7441 9.29782C15.7441 5.56668 12.7066 2.51392 8.99414 2.51392C5.28164 2.51392 2.24414 5.56668 2.24414 9.29782Z" stroke="#DCB300" stroke-linecap="round"/>
</svg>
