<svg width="18" height="19" viewBox="0 0 18 19" fill="none" xmlns="http://www.w3.org/2000/svg">
<path d="M14.2441 13.8205V7.69181C14.2441 7.29399 14.0787 6.92159 13.7709 6.66948C12.9622 6.00696 11.3167 4.69016 10.0073 3.51973C9.42291 2.99737 8.53461 2.96437 7.93949 3.47447L4.26796 6.62151C3.93549 6.90648 3.74414 7.3225 3.74414 7.76039V13.8205C3.74414 14.6489 4.41571 15.3205 5.24414 15.3205H5.61914C6.44757 15.3205 7.11914 14.6489 7.11914 13.8205V12.3205C7.11914 11.492 7.79069 10.8205 8.61914 10.8205H9.36914C10.1976 10.8205 10.8691 11.492 10.8691 12.3205V13.8205C10.8691 14.6489 11.5407 15.3205 12.3691 15.3205H12.7441C13.5726 15.3205 14.2441 14.6489 14.2441 13.8205Z" stroke="#DCB300" stroke-linecap="round"/>
</svg>
